<?xml version="1.0" standalone="no"?>

<!DOCTYPE svg PUBLIC "-//W3C//DTD SVG 20010904//EN"

 "http://www.w3.org/TR/2001/REC-SVG-20010904/DTD/svg10.dtd">

<svg version="1.0" xmlns="http://www.w3.org/2000/svg"

 width="640.000000pt" height="553.000000pt" viewBox="0 0 640.000000 553.000000"

 preserveAspectRatio="xMidYMid meet">

<path fill="#000000" stroke="none" d="
M40 475

L40 430

L30 430

L20 430

L20 330

L20 230

L35 230

L50 230

L50 225

L50 220

L45 220

L40 220

L40 215

L40 210

L35 210

L30 210

L30 205

L30 200

L25 200

L20 200

L20 155

L20 110

L25 110

L30 110

L30 100

L30 90

L35 90

L40 90

L40 85

L40 80

L50 80

L60 80

L60 75

L60 70

L65 70

L70 70

L70 65

L70 60

L85 60

L100 60

L100 55

L100 50

L115 50

L130 50

L130 45

L130 40

L150 40

L170 40

L170 35

L170 30

L200 30

L230 30

L230 25

L230 20

L320 20

L410 20

L410 25

L410 30

L440 30

L470 30

L470 35

L470 40

L490 40

L510 40

L510 45

L510 50

L525 50

L540 50

L540 55

L540 60

L555 60

L570 60

L570 65

L570 70

L575 70

L580 70

L580 75

L580 80

L590 80

L600 80

L600 85

L600 90

L605 90

L610 90

L610 100

L610 110

L615 110

L620 110

L620 165

L620 220

L615 220

L610 220

L610 225

L610 230

L605 230

L600 230

L600 235

L600 240

L605 240

L610 240

L610 245

L610 250

L615 250

L620 250

L620 340

L620 430

L610 430

L600 430

L600 475

L600 520

L320 520

L40 520

L40 475

Z

M80 500

L80 490

L75 490

L70 490

L70 460

L70 430

L60 430

L50 430

L50 470

L50 510

L65 510

L80 510

L80 500

Z

M120 500

L120 490

L115 490

L110 490

L110 460

L110 430

L105 430

L100 430

L100 460

L100 490

L95 490

L90 490

L90 500

L90 510

L105 510

L120 510

L120 500

Z

M160 470

L160 430

L150 430

L140 430

L140 460

L140 490

L135 490

L130 490

L130 500

L130 510

L145 510

L160 510

L160 470

Z

M200 500

L200 490

L195 490

L190 490

L190 460

L190 430

L180 430

L170 430

L170 470

L170 510

L185 510

L200 510

L200 500

Z

M240 500

L240 490

L235 490

L230 490

L230 460

L230 430

L225 430

L220 430

L220 460

L220 490

L215 490

L210 490

L210 500

L210 510

L225 510

L240 510

L240 500

Z

M280 500

L280 490

L275 490

L270 490

L270 460

L270 430

L265 430

L260 430

L260 460

L260 490

L255 490

L250 490

L250 500

L250 510

L265 510

L280 510

L280 500

Z

M320 470

L320 430

L310 430

L300 430

L300 460

L300 490

L295 490

L290 490

L290 500

L290 510

L305 510

L320 510

L320 470

Z

M360 500

L360 490

L355 490

L350 490

L350 460

L350 430

L340 430

L330 430

L330 470

L330 510

L345 510

L360 510

L360 500

Z

M400 500

L400 490

L395 490

L390 490

L390 460

L390 430

L385 430

L380 430

L380 460

L380 490

L375 490

L370 490

L370 500

L370 510

L385 510

L400 510

L400 500

Z

M440 470

L440 430

L430 430

L420 430

L420 460

L420 490

L415 490

L410 490

L410 500

L410 510

L425 510

L440 510

L440 470

Z

M480 500

L480 490

L475 490

L470 490

L470 460

L470 430

L460 430

L450 430

L450 470

L450 510

L465 510

L480 510

L480 500

Z

M520 500

L520 490

L515 490

L510 490

L510 460

L510 430

L505 430

L500 430

L500 460

L500 490

L495 490

L490 490

L490 500

L490 510

L505 510

L520 510

L520 500

Z

M560 500

L560 490

L555 490

L550 490

L550 460

L550 430

L545 430

L540 430

L540 460

L540 490

L535 490

L530 490

L530 500

L530 510

L545 510

L560 510

L560 500

Z

M590 470

L590 430

L585 430

L580 430

L580 460

L580 490

L575 490

L570 490

L570 500

L570 510

L580 510

L590 510

L590 470

Z

M610 390

L610 360

L600 360

L590 360

L590 355

L590 350

L600 350

L610 350

L610 300

L610 250

L605 250

L600 250

L600 245

L600 240

L595 240

L590 240

L590 235

L590 230

L595 230

L600 230

L600 225

L600 220

L605 220

L610 220

L610 165

L610 110

L605 110

L600 110

L600 105

L600 100

L595 100

L590 100

L590 110

L590 120

L580 120

L570 120

L570 115

L570 110

L575 110

L580 110

L580 95

L580 80

L575 80

L570 80

L570 75

L570 70

L555 70

L540 70

L540 65

L540 60

L525 60

L510 60

L510 55

L510 50

L490 50

L470 50

L470 45

L470 40

L440 40

L410 40

L410 35

L410 30

L320 30

L230 30

L230 35

L230 40

L200 40

L170 40

L170 45

L170 50

L150 50

L130 50

L130 55

L130 60

L115 60

L100 60

L100 65

L100 70

L85 70

L70 70

L70 75

L70 80

L65 80

L60 80

L60 90

L60 100

L65 100

L70 100

L70 110

L70 120

L65 120

L60 120

L60 115

L60 110

L55 110

L50 110

L50 100

L50 90

L45 90

L40 90

L40 100

L40 110

L35 110

L30 110

L30 155

L30 200

L35 200

L40 200

L40 205

L40 210

L45 210

L50 210

L50 215

L50 220

L55 220

L60 220

L60 225

L60 230

L55 230

L50 230

L50 235

L50 240

L40 240

L30 240

L30 305

L30 370

L35 370

L40 370

L40 375

L40 380

L35 380

L30 380

L30 400

L30 420

L320 420

L610 420

L610 390

Z

M190 385

L190 360

L200 360

L210 360

L210 365

L210 370

L215 370

L220 370

L220 375

L220 380

L215 380

L210 380

L210 385

L210 390

L205 390

L200 390

L200 400

L200 410

L195 410

L190 410

L190 385

Z

M210 375

L210 370

L205 370

L200 370

L200 375

L200 380

L205 380

L210 380

L210 375

Z

M230 385

L230 360

L240 360

L250 360

L250 365

L250 370

L255 370

L260 370

L260 375

L260 380

L255 380

L250 380

L250 385

L250 390

L255 390

L260 390

L260 400

L260 410

L255 410

L250 410

L250 400

L250 390

L245 390

L240 390

L240 400

L240 410

L235 410

L230 410

L230 385

Z

M250 375

L250 370

L245 370

L240 370

L240 375

L240 380

L245 380

L250 380

L250 375

Z

M280 405

L280 400

L275 400

L270 400

L270 385

L270 370

L275 370

L280 370

L280 365

L280 360

L285 360

L290 360

L290 365

L290 370

L295 370

L300 370

L300 385

L300 400

L295 400

L290 400

L290 405

L290 410

L285 410

L280 410

L280 405

Z

M290 385

L290 370

L285 370

L280 370

L280 385

L280 400

L285 400

L290 400

L290 385

Z

M320 405

L320 400

L315 400

L310 400

L310 395

L310 390

L315 390

L320 390

L320 395

L320 400

L325 400

L330 400

L330 380

L330 360

L335 360

L340 360

L340 380

L340 400

L335 400

L330 400

L330 405

L330 410

L325 410

L320 410

L320 405

Z

M350 385

L350 360

L360 360

L370 360

L370 365

L370 370

L365 370

L360 370

L360 375

L360 380

L365 380

L370 380

L370 385

L370 390

L365 390

L360 390

L360 395

L360 400

L365 400

L370 400

L370 405

L370 410

L360 410

L350 410

L350 385

Z

M390 405

L390 400

L385 400

L380 400

L380 385

L380 370

L385 370

L390 370

L390 365

L390 360

L395 360

L400 360

L400 365

L400 370

L405 370

L410 370

L410 375

L410 380

L405 380

L400 380

L400 375

L400 370

L395 370

L390 370

L390 385

L390 400

L395 400

L400 400

L400 395

L400 390

L405 390

L410 390

L410 395

L410 400

L405 400

L400 400

L400 405

L400 410

L395 410

L390 410

L390 405

Z

M430 390

L430 370

L425 370

L420 370

L420 365

L420 360

L435 360

L450 360

L450 365

L450 370

L445 370

L440 370

L440 390

L440 410

L435 410

L430 410

L430 390

Z

M40 385

L40 380

L45 380

L50 380

L50 375

L50 370

L60 370

L70 370

L70 365

L70 360

L75 360

L80 360

L80 365

L80 370

L75 370

L70 370

L70 375

L70 380

L60 380

L50 380

L50 385

L50 390

L45 390

L40 390

L40 385

Z

M570 380

L570 370

L575 370

L580 370

L580 365

L580 360

L585 360

L590 360

L590 365

L590 370

L585 370

L580 370

L580 380

L580 390

L575 390

L570 390

L570 380

Z

M50 325

L50 300

L60 300

L70 300

L70 305

L70 310

L75 310

L80 310

L80 315

L80 320

L75 320

L70 320

L70 325

L70 330

L65 330

L60 330

L60 340

L60 350

L55 350

L50 350

L50 325

Z

M70 315

L70 310

L65 310

L60 310

L60 315

L60 320

L65 320

L70 320

L70 315

Z

M100 345

L100 340

L95 340

L90 340

L90 325

L90 310

L95 310

L100 310

L100 305

L100 300

L105 300

L110 300

L110 305

L110 310

L115 310

L120 310

L120 325

L120 340

L115 340

L110 340

L110 345

L110 350

L105 350

L100 350

L100 345

Z

M110 325

L110 310

L105 310

L100 310

L100 325

L100 340

L105 340

L110 340

L110 325

Z

M140 345

L140 340

L145 340

L150 340

L150 335

L150 330

L145 330

L140 330

L140 325

L140 320

L135 320

L130 320

L130 315

L130 310

L135 310

L140 310

L140 305

L140 300

L150 300

L160 300

L160 305

L160 310

L150 310

L140 310

L140 315

L140 320

L145 320

L150 320

L150 325

L150 330

L155 330

L160 330

L160 340

L160 350

L150 350

L140 350

L140 345

Z

M180 345

L180 340

L185 340

L190 340

L190 335

L190 330

L185 330

L180 330

L180 325

L180 320

L175 320

L170 320

L170 315

L170 310

L175 310

L180 310

L180 305

L180 300

L190 300

L200 300

L200 305

L200 310

L190 310

L180 310

L180 315

L180 320

L185 320

L190 320

L190 325

L190 330

L195 330

L200 330

L200 340

L200 350

L190 350

L180 350

L180 345

Z

M210 325

L210 300

L220 300

L230 300

L230 305

L230 310

L225 310

L220 310

L220 315

L220 320

L225 320

L230 320

L230 325

L230 330

L225 330

L220 330

L220 335

L220 340

L225 340

L230 340

L230 345

L230 350

L220 350

L210 350

L210 325

Z

M250 345

L250 340

L255 340

L260 340

L260 335

L260 330

L255 330

L250 330

L250 325

L250 320

L245 320

L240 320

L240 315

L240 310

L245 310

L250 310

L250 305

L250 300

L260 300

L270 300

L270 305

L270 310

L260 310

L250 310

L250 315

L250 320

L255 320

L260 320

L260 325

L260 330

L265 330

L270 330

L270 340

L270 350

L260 350

L250 350

L250 345

Z

M290 345

L290 340

L295 340

L300 340

L300 335

L300 330

L295 330

L290 330

L290 325

L290 320

L285 320

L280 320

L280 315

L280 310

L285 310

L290 310

L290 305

L290 300

L300 300

L310 300

L310 305

L310 310

L300 310

L290 310

L290 315

L290 320

L295 320

L300 320

L300 325

L300 330

L305 330

L310 330

L310 340

L310 350

L300 350

L290 350

L290 345

Z

M320 325

L320 300

L330 300

L340 300

L340 305

L340 310

L335 310

L330 310

L330 315

L330 320

L335 320

L340 320

L340 325

L340 330

L335 330

L330 330

L330 335

L330 340

L335 340

L340 340

L340 345

L340 350

L330 350

L320 350

L320 325

Z

M350 325

L350 300

L360 300

L370 300

L370 305

L370 310

L375 310

L380 310

L380 325

L380 340

L375 340

L370 340

L370 345

L370 350

L360 350

L350 350

L350 325

Z

M370 325

L370 310

L365 310

L360 310

L360 325

L360 340

L365 340

L370 340

L370 325

Z

M410 325

L410 300

L420 300

L430 300

L430 305

L430 310

L435 310

L440 310

L440 315

L440 320

L435 320

L430 320

L430 325

L430 330

L425 330

L420 330

L420 340

L420 350

L415 350

L410 350

L410 325

Z

M430 315

L430 310

L425 310

L420 310

L420 315

L420 320

L425 320

L430 320

L430 315

Z

M450 325

L450 300

L455 300

L460 300

L460 325

L460 350

L455 350

L450 350

L450 325

Z

M470 330

L470 310

L475 310

L480 310

L480 305

L480 300

L485 300

L490 300

L490 305

L490 310

L495 310

L500 310

L500 330

L500 350

L495 350

L490 350

L490 340

L490 330

L485 330

L480 330

L480 340

L480 350

L475 350

L470 350

L470 330

Z

M490 315

L490 310

L485 310

L480 310

L480 315

L480 320

L485 320

L490 320

L490 315

Z

M510 325

L510 300

L515 300

L520 300

L520 305

L520 310

L525 310

L530 310

L530 315

L530 320

L535 320

L540 320

L540 310

L540 300

L545 300

L550 300

L550 325

L550 350

L545 350

L540 350

L540 340

L540 330

L535 330

L530 330

L530 325

L530 320

L525 320

L520 320

L520 335

L520 350

L515 350

L510 350

L510 325

Z

M570 345

L570 340

L565 340

L560 340

L560 325

L560 310

L565 310

L570 310

L570 305

L570 300

L575 300

L580 300

L580 305

L580 310

L585 310

L590 310

L590 325

L590 340

L585 340

L580 340

L580 345

L580 350

L575 350

L570 350

L570 345

Z

M580 325

L580 310

L575 310

L570 310

L570 325

L570 340

L575 340

L580 340

L580 325

Z

M140 285

L140 280

L145 280

L150 280

L150 240

L150 200

L145 200

L140 200

L140 195

L140 190

L145 190

L150 190

L150 140

L150 90

L145 90

L140 90

L140 85

L140 80

L180 80

L220 80

L220 85

L220 90

L225 90

L230 90

L230 95

L230 100

L235 100

L240 100

L240 105

L240 110

L245 110

L250 110

L250 135

L250 160

L245 160

L240 160

L240 165

L240 170

L235 170

L230 170

L230 180

L230 190

L220 190

L210 190

L210 195

L210 200

L205 200

L200 200

L200 205

L200 210

L195 210

L190 210

L190 215

L190 220

L185 220

L180 220

L180 230

L180 240

L185 240

L190 240

L190 245

L190 250

L180 250

L170 250

L170 265

L170 280

L175 280

L180 280

L180 285

L180 290

L160 290

L140 290

L140 285

Z

M180 205

L180 200

L185 200

L190 200

L190 195

L190 190

L195 190

L200 190

L200 185

L200 180

L205 180

L210 180

L210 170

L210 160

L215 160

L220 160

L220 135

L220 110

L215 110

L210 110

L210 105

L210 100

L190 100

L170 100

L170 155

L170 210

L175 210

L180 210

L180 205

Z

M270 285

L270 280

L275 280

L280 280

L280 230

L280 180

L275 180

L270 180

L270 175

L270 170

L275 170

L280 170

L280 120

L280 70

L275 70

L270 70

L270 65

L270 60

L310 60

L350 60

L350 65

L350 70

L355 70

L360 70

L360 75

L360 80

L365 80

L370 80

L370 85

L370 90

L375 90

L380 90

L380 115

L380 140

L375 140

L370 140

L370 145

L370 150

L365 150

L360 150

L360 160

L360 170

L350 170

L340 170

L340 175

L340 180

L335 180

L330 180

L330 185

L330 190

L325 190

L320 190

L320 195

L320 200

L315 200

L310 200

L310 210

L310 220

L315 220

L320 220

L320 225

L320 230

L310 230

L300 230

L300 255

L300 280

L305 280

L310 280

L310 285

L310 290

L290 290

L270 290

L270 285

Z

M310 185

L310 180

L315 180

L320 180

L320 175

L320 170

L325 170

L330 170

L330 165

L330 160

L335 160

L340 160

L340 150

L340 140

L345 140

L350 140

L350 115

L350 90

L345 90

L340 90

L340 85

L340 80

L320 80

L300 80

L300 135

L300 190

L305 190

L310 190

L310 185

Z

M400 285

L400 280

L405 280

L410 280

L410 240

L410 200

L405 200

L400 200

L400 195

L400 190

L405 190

L410 190

L410 140

L410 90

L405 90

L400 90

L400 85

L400 80

L440 80

L480 80

L480 85

L480 90

L485 90

L490 90

L490 95

L490 100

L495 100

L500 100

L500 105

L500 110

L505 110

L510 110

L510 135

L510 160

L505 160

L500 160

L500 165

L500 170

L495 170

L490 170

L490 180

L490 190

L480 190

L470 190

L470 195

L470 200

L465 200

L460 200

L460 205

L460 210

L455 210

L450 210

L450 215

L450 220

L445 220

L440 220

L440 230

L440 240

L445 240

L450 240

L450 245

L450 250

L440 250

L430 250

L430 265

L430 280

L435 280

L440 280

L440 285

L440 290

L420 290

L400 290

L400 285

Z

M440 205

L440 200

L445 200

L450 200

L450 195

L450 190

L455 190

L460 190

L460 185

L460 180

L465 180

L470 180

L470 170

L470 160

L475 160

L480 160

L480 135

L480 110

L475 110

L470 110

L470 105

L470 100

L450 100

L430 100

L430 155

L430 210

L435 210

L440 210

L440 205

Z

M50 155

L50 150

L55 150

L60 150

L60 140

L60 130

L65 130

L70 130

L70 125

L70 120

L75 120

L80 120

L80 125

L80 130

L85 130

L90 130

L90 135

L90 140

L95 140

L100 140

L100 145

L100 150

L95 150

L90 150

L90 145

L90 140

L85 140

L80 140

L80 135

L80 130

L75 130

L70 130

L70 140

L70 150

L65 150

L60 150

L60 155

L60 160

L55 160

L50 160

L50 155

Z

M580 145

L580 140

L585 140

L590 140

L590 130

L590 120

L595 120

L600 120

L600 130

L600 140

L595 140

L590 140

L590 145

L590 150

L585 150

L580 150

L580 145

Z

M560 125

L560 120

L565 120

L570 120

L570 125

L570 130

L565 130

L560 130

L560 125

Z

M70 95

L70 90

L80 90

L90 90

L90 85

L90 80

L95 80

L100 80

L100 85

L100 90

L95 90

L90 90

L90 95

L90 100

L80 100

L70 100

L70 95

Z

"/>

<path fill="#ffffff" stroke="none" d="
"/>

</svg>

