<?xml version="1.0" encoding="UTF-8" standalone="no"?>
<!DOCTYPE svg PUBLIC "-//W3C//DTD SVG 1.1//EN" "http://www.w3.org/Graphics/SVG/1.1/DTD/svg11.dtd">
<svg width="100%" height="100%" viewBox="0 0 6000 3600" version="1.1" xmlns="http://www.w3.org/2000/svg" xmlns:xlink="http://www.w3.org/1999/xlink" xml:space="preserve" xmlns:serif="http://www.serif.com/" style="fill-rule:evenodd;clip-rule:evenodd;stroke-linecap:round;stroke-linejoin:round;stroke-miterlimit:1.5;">
    <g transform="matrix(1,0,0,1,-980.315,118.11)">
        <g transform="matrix(0.980769,0,0,0.978916,36.3416,-50.3392)">
            <path d="M2503.94,444.153C2503.94,427.172 2490.18,413.386 2473.23,413.386L1920.47,413.386C1903.52,413.386 1889.76,427.172 1889.76,444.153L1889.76,1362.93C1889.76,1379.91 1903.52,1393.7 1920.47,1393.7L2473.23,1393.7C2490.18,1393.7 2503.94,1379.91 2503.94,1362.93L2503.94,444.153Z" style="fill:none;stroke:rgb(0,255,0);stroke-width:0.85px;"/>
        </g>
        <g transform="matrix(1,0,0,1,-419.291,-72.3425)">
            <g transform="matrix(1.03333,0,0,1.03333,1969.49,-412.402)">
                <circle cx="620.079" cy="856.299" r="17.717" style="fill:none;stroke:rgb(255,0,0);stroke-width:0.81px;"/>
            </g>
            <g transform="matrix(1.03333,0,0,1.03333,1969.49,455.709)">
                <circle cx="620.079" cy="856.299" r="17.717" style="fill:none;stroke:rgb(255,0,0);stroke-width:0.81px;"/>
            </g>
        </g>
    </g>
    <g transform="matrix(6.12323e-17,1,-1,6.12323e-17,1015.75,-2125.98)">
        <g>
            <g transform="matrix(2.02222,0,0,1.57895,-2656.17,-205.139)">
                <rect x="2598.43" y="354.331" width="531.496" height="224.409" style="fill:none;stroke:rgb(0,255,0);stroke-width:0.46px;"/>
            </g>
            <g transform="matrix(1,0,0,1,-118.11,0)">
                <rect x="2716.53" y="354.331" width="118.11" height="354.331" style="fill:none;stroke:rgb(0,255,0);stroke-width:0.83px;"/>
            </g>
            <g transform="matrix(1,0,0,1,838.583,0)">
                <rect x="2716.53" y="354.331" width="118.11" height="354.331" style="fill:none;stroke:rgb(0,255,0);stroke-width:0.83px;"/>
            </g>
            <g transform="matrix(1.03333,0,0,1.03333,2016.73,-353.346)">
                <circle cx="620.079" cy="856.299" r="17.717" style="fill:none;stroke:rgb(255,0,0);stroke-width:0.81px;"/>
            </g>
            <g transform="matrix(1.03333,0,0,1.03333,2973.43,-353.346)">
                <circle cx="620.079" cy="856.299" r="17.717" style="fill:none;stroke:rgb(255,0,0);stroke-width:0.81px;"/>
            </g>
        </g>
        <g>
            <g transform="matrix(1,0,0,1,-4.54747e-13,-11.811)">
                <path d="M2716.53,732.283L2716.53,791.339" style="fill:none;stroke:black;stroke-width:8.33px;"/>
                <g transform="matrix(1,0,0,1,139.764,0)">
                    <path d="M2716.53,732.283L2716.53,791.339" style="fill:none;stroke:black;stroke-width:8.33px;"/>
                </g>
                <g transform="matrix(1,0,0,1,279.528,0)">
                    <path d="M2716.53,732.283L2716.53,791.339" style="fill:none;stroke:black;stroke-width:8.33px;"/>
                </g>
                <g transform="matrix(1,0,0,1,419.291,0)">
                    <path d="M2716.53,732.283L2716.53,791.339" style="fill:none;stroke:black;stroke-width:8.33px;"/>
                </g>
                <g transform="matrix(1,0,0,1,559.055,0)">
                    <path d="M2716.53,732.283L2716.53,791.339" style="fill:none;stroke:black;stroke-width:8.33px;"/>
                </g>
                <g transform="matrix(1,0,0,1,698.819,0)">
                    <path d="M2716.53,732.283L2716.53,791.339" style="fill:none;stroke:black;stroke-width:8.33px;"/>
                </g>
                <g transform="matrix(1,0,0,1,838.583,0)">
                    <path d="M2716.53,732.283L2716.53,791.339" style="fill:none;stroke:black;stroke-width:8.33px;"/>
                </g>
            </g>
            <g transform="matrix(6.12323e-17,-1,1,6.12323e-17,1937.01,1842.52)">
                <g transform="matrix(50,0,0,50,1008.43,863.911)">
                    <path d="M0.392,-0L0.392,-0.7L0.279,-0.7C0.275,-0.673 0.267,-0.651 0.254,-0.633C0.241,-0.615 0.226,-0.6 0.208,-0.59C0.189,-0.579 0.168,-0.571 0.146,-0.567C0.123,-0.562 0.099,-0.56 0.074,-0.561L0.074,-0.454L0.25,-0.454L0.25,-0L0.392,-0Z" style="fill-rule:nonzero;"/>
                </g>
                <g transform="matrix(50,0,0,50,1036.23,863.911)">
                    <path d="M0.037,-0.431L0.173,-0.431C0.173,-0.45 0.175,-0.468 0.179,-0.488C0.182,-0.507 0.188,-0.524 0.197,-0.54C0.206,-0.555 0.217,-0.568 0.232,-0.578C0.246,-0.587 0.263,-0.592 0.284,-0.592C0.315,-0.592 0.34,-0.583 0.36,-0.564C0.379,-0.545 0.389,-0.518 0.389,-0.484C0.389,-0.463 0.384,-0.444 0.375,-0.427C0.365,-0.41 0.353,-0.395 0.339,-0.382C0.324,-0.369 0.308,-0.357 0.291,-0.346C0.274,-0.335 0.257,-0.324 0.242,-0.313C0.212,-0.292 0.184,-0.272 0.157,-0.252C0.13,-0.232 0.106,-0.21 0.086,-0.187C0.066,-0.163 0.05,-0.136 0.039,-0.106C0.027,-0.076 0.021,-0.041 0.021,-0L0.535,-0L0.535,-0.122L0.204,-0.122C0.221,-0.146 0.241,-0.167 0.264,-0.185C0.287,-0.203 0.31,-0.22 0.334,-0.236C0.358,-0.251 0.382,-0.267 0.406,-0.283C0.429,-0.299 0.45,-0.317 0.469,-0.337C0.488,-0.356 0.503,-0.379 0.514,-0.404C0.525,-0.429 0.531,-0.46 0.531,-0.495C0.531,-0.529 0.525,-0.56 0.512,-0.587C0.499,-0.614 0.481,-0.637 0.459,-0.656C0.437,-0.675 0.411,-0.689 0.383,-0.699C0.354,-0.709 0.323,-0.714 0.291,-0.714C0.249,-0.714 0.212,-0.707 0.18,-0.693C0.147,-0.678 0.12,-0.658 0.099,-0.633C0.078,-0.607 0.062,-0.577 0.051,-0.543C0.04,-0.508 0.036,-0.471 0.037,-0.431Z" style="fill-rule:nonzero;"/>
                </g>
                <g transform="matrix(50,0,0,50,1064.03,863.911)">
                    <path d="M0.401,-0L0.638,-0.714L0.476,-0.714L0.315,-0.212L0.313,-0.212L0.154,-0.714L-0.007,-0.714L0.224,-0L0.401,-0Z" style="fill-rule:nonzero;"/>
                </g>
                <g transform="matrix(50,0,0,50,1095.53,863.911)">
                    <path d="M0.175,-0.596L0.464,-0.307L0.175,-0.018L0.175,-0.596Z" style="fill-rule:nonzero;"/>
                </g>
            </g>
            <g transform="matrix(6.12323e-17,-1,1,6.12323e-17,2076.77,1842.52)">
                <g transform="matrix(50,0,0,50,983.484,863.911)">
                    <path d="M0.585,-0.081L0.601,-0L0.701,-0L0.701,-0.386L0.401,-0.386L0.401,-0.269L0.559,-0.269C0.554,-0.219 0.538,-0.181 0.51,-0.155C0.481,-0.128 0.441,-0.115 0.389,-0.115C0.354,-0.115 0.324,-0.122 0.299,-0.136C0.274,-0.149 0.254,-0.167 0.239,-0.19C0.224,-0.213 0.213,-0.238 0.206,-0.267C0.199,-0.295 0.195,-0.324 0.195,-0.354C0.195,-0.385 0.199,-0.416 0.206,-0.445C0.213,-0.474 0.224,-0.501 0.239,-0.524C0.254,-0.547 0.274,-0.565 0.299,-0.579C0.324,-0.592 0.354,-0.599 0.389,-0.599C0.427,-0.599 0.459,-0.589 0.486,-0.569C0.513,-0.549 0.531,-0.519 0.54,-0.479L0.69,-0.479C0.686,-0.52 0.675,-0.556 0.657,-0.587C0.639,-0.618 0.616,-0.645 0.589,-0.666C0.561,-0.687 0.53,-0.704 0.496,-0.715C0.461,-0.725 0.426,-0.731 0.389,-0.731C0.334,-0.731 0.285,-0.721 0.242,-0.702C0.198,-0.683 0.161,-0.656 0.131,-0.622C0.101,-0.588 0.078,-0.548 0.062,-0.503C0.046,-0.457 0.038,-0.407 0.038,-0.354C0.038,-0.302 0.046,-0.254 0.062,-0.209C0.078,-0.164 0.101,-0.124 0.131,-0.091C0.161,-0.058 0.198,-0.032 0.242,-0.013C0.285,0.007 0.334,0.016 0.389,0.016C0.424,0.016 0.458,0.009 0.492,-0.006C0.526,-0.02 0.557,-0.045 0.585,-0.081Z" style="fill-rule:nonzero;"/>
                </g>
                <g transform="matrix(50,0,0,50,1021.43,863.911)">
                    <path d="M0.069,-0.714L0.069,-0L0.216,-0L0.216,-0.478L0.218,-0.478L0.515,-0L0.672,-0L0.672,-0.714L0.525,-0.714L0.525,-0.235L0.523,-0.235L0.225,-0.714L0.069,-0.714Z" style="fill-rule:nonzero;"/>
                </g>
                <g transform="matrix(50,0,0,50,1058.48,863.911)">
                    <path d="M0.226,-0.132L0.226,-0.582L0.338,-0.582C0.377,-0.582 0.409,-0.576 0.436,-0.566C0.462,-0.555 0.483,-0.539 0.499,-0.518C0.515,-0.497 0.527,-0.472 0.534,-0.444C0.541,-0.415 0.544,-0.382 0.544,-0.346C0.544,-0.307 0.539,-0.273 0.529,-0.246C0.519,-0.219 0.506,-0.197 0.489,-0.18C0.472,-0.163 0.453,-0.15 0.432,-0.143C0.411,-0.136 0.389,-0.132 0.366,-0.132L0.226,-0.132ZM0.069,-0.714L0.069,-0L0.377,-0C0.432,-0 0.479,-0.009 0.52,-0.028C0.56,-0.046 0.594,-0.071 0.621,-0.103C0.648,-0.135 0.668,-0.173 0.681,-0.217C0.694,-0.261 0.701,-0.309 0.701,-0.361C0.701,-0.42 0.693,-0.472 0.677,-0.516C0.66,-0.56 0.638,-0.597 0.609,-0.626C0.58,-0.655 0.545,-0.677 0.506,-0.692C0.466,-0.707 0.423,-0.714 0.377,-0.714L0.069,-0.714Z" style="fill-rule:nonzero;"/>
                </g>
                <g transform="matrix(50,0,0,50,1095.53,863.911)">
                    <path d="M0.175,-0.596L0.464,-0.307L0.175,-0.018L0.175,-0.596Z" style="fill-rule:nonzero;"/>
                </g>
            </g>
            <g transform="matrix(6.12323e-17,-1,1,6.12323e-17,2216.54,1842.52)">
                <g transform="matrix(50,0,0,50,966.734,863.911)">
                    <path d="M0.176,-0.237L0.024,-0.237C0.023,-0.193 0.031,-0.155 0.048,-0.123C0.065,-0.091 0.087,-0.065 0.116,-0.044C0.144,-0.023 0.177,-0.008 0.214,0.002C0.251,0.011 0.289,0.016 0.328,0.016C0.377,0.016 0.42,0.01 0.457,-0.001C0.494,-0.012 0.525,-0.028 0.55,-0.049C0.575,-0.069 0.593,-0.093 0.606,-0.121C0.619,-0.149 0.625,-0.179 0.625,-0.212C0.625,-0.252 0.616,-0.285 0.6,-0.311C0.583,-0.336 0.562,-0.357 0.539,-0.372C0.516,-0.387 0.492,-0.399 0.469,-0.406C0.445,-0.413 0.426,-0.417 0.413,-0.42C0.368,-0.431 0.332,-0.441 0.305,-0.448C0.277,-0.455 0.255,-0.463 0.24,-0.47C0.224,-0.477 0.213,-0.485 0.208,-0.494C0.203,-0.503 0.2,-0.514 0.2,-0.528C0.2,-0.543 0.203,-0.556 0.21,-0.566C0.217,-0.576 0.225,-0.584 0.236,-0.591C0.246,-0.598 0.257,-0.602 0.27,-0.605C0.283,-0.608 0.295,-0.609 0.308,-0.609C0.327,-0.609 0.345,-0.607 0.362,-0.604C0.378,-0.601 0.392,-0.595 0.405,-0.587C0.418,-0.579 0.428,-0.568 0.436,-0.554C0.443,-0.54 0.448,-0.522 0.449,-0.501L0.601,-0.501C0.601,-0.542 0.593,-0.578 0.578,-0.607C0.562,-0.636 0.541,-0.659 0.514,-0.678C0.487,-0.697 0.457,-0.71 0.423,-0.719C0.388,-0.727 0.352,-0.731 0.315,-0.731C0.283,-0.731 0.251,-0.727 0.219,-0.718C0.187,-0.709 0.158,-0.696 0.133,-0.678C0.108,-0.66 0.087,-0.638 0.072,-0.611C0.056,-0.584 0.048,-0.552 0.048,-0.515C0.048,-0.482 0.054,-0.455 0.067,-0.432C0.079,-0.409 0.095,-0.389 0.115,-0.374C0.135,-0.359 0.158,-0.346 0.183,-0.337C0.208,-0.327 0.234,-0.319 0.261,-0.312C0.287,-0.305 0.313,-0.298 0.338,-0.292C0.363,-0.286 0.386,-0.279 0.406,-0.271C0.426,-0.263 0.442,-0.253 0.455,-0.241C0.467,-0.229 0.473,-0.213 0.473,-0.194C0.473,-0.176 0.468,-0.161 0.459,-0.15C0.45,-0.138 0.438,-0.129 0.424,-0.122C0.41,-0.115 0.395,-0.111 0.379,-0.109C0.363,-0.106 0.348,-0.105 0.334,-0.105C0.313,-0.105 0.293,-0.108 0.274,-0.113C0.255,-0.117 0.238,-0.125 0.224,-0.136C0.209,-0.146 0.198,-0.159 0.189,-0.176C0.18,-0.193 0.176,-0.213 0.176,-0.237Z" style="fill-rule:nonzero;"/>
                </g>
                <g transform="matrix(50,0,0,50,999.184,863.911)">
                    <path d="M0.195,-0.354C0.195,-0.385 0.199,-0.416 0.206,-0.445C0.213,-0.474 0.224,-0.501 0.239,-0.524C0.254,-0.547 0.274,-0.565 0.299,-0.579C0.324,-0.592 0.354,-0.599 0.389,-0.599C0.424,-0.599 0.454,-0.592 0.479,-0.579C0.504,-0.565 0.524,-0.547 0.539,-0.524C0.554,-0.501 0.566,-0.474 0.573,-0.445C0.58,-0.416 0.583,-0.385 0.583,-0.354C0.583,-0.324 0.58,-0.295 0.573,-0.267C0.566,-0.238 0.554,-0.213 0.539,-0.19C0.524,-0.167 0.504,-0.149 0.479,-0.136C0.454,-0.122 0.424,-0.115 0.389,-0.115C0.354,-0.115 0.324,-0.122 0.299,-0.136C0.274,-0.149 0.254,-0.167 0.239,-0.19C0.224,-0.213 0.213,-0.238 0.206,-0.267C0.199,-0.295 0.195,-0.324 0.195,-0.354ZM0.038,-0.354C0.038,-0.302 0.046,-0.254 0.062,-0.209C0.078,-0.164 0.101,-0.124 0.131,-0.091C0.161,-0.058 0.198,-0.032 0.242,-0.013C0.285,0.007 0.334,0.016 0.389,0.016C0.444,0.016 0.494,0.007 0.537,-0.013C0.58,-0.032 0.617,-0.058 0.647,-0.091C0.677,-0.124 0.7,-0.164 0.716,-0.209C0.732,-0.254 0.74,-0.302 0.74,-0.354C0.74,-0.407 0.732,-0.457 0.716,-0.503C0.7,-0.548 0.677,-0.588 0.647,-0.622C0.617,-0.656 0.58,-0.683 0.537,-0.702C0.494,-0.721 0.444,-0.731 0.389,-0.731C0.334,-0.731 0.285,-0.721 0.242,-0.702C0.198,-0.683 0.161,-0.656 0.131,-0.622C0.101,-0.588 0.078,-0.548 0.062,-0.503C0.046,-0.457 0.038,-0.407 0.038,-0.354Z" style="fill-rule:nonzero;"/>
                </g>
                <g transform="matrix(50,0,0,50,1038.08,863.911)">
                    <path d="M0.069,-0.714L0.069,-0L0.574,-0L0.574,-0.132L0.226,-0.132L0.226,-0.714L0.069,-0.714Z" style="fill-rule:nonzero;"/>
                </g>
                <g transform="matrix(50,0,0,50,1067.73,863.911)">
                    <path d="M0.392,-0L0.392,-0.7L0.279,-0.7C0.275,-0.673 0.267,-0.651 0.254,-0.633C0.241,-0.615 0.226,-0.6 0.208,-0.59C0.189,-0.579 0.168,-0.571 0.146,-0.567C0.123,-0.562 0.099,-0.56 0.074,-0.561L0.074,-0.454L0.25,-0.454L0.25,-0L0.392,-0Z" style="fill-rule:nonzero;"/>
                </g>
                <g transform="matrix(50,0,0,50,1095.53,863.911)">
                    <path d="M0.175,-0.596L0.464,-0.307L0.175,-0.018L0.175,-0.596Z" style="fill-rule:nonzero;"/>
                </g>
            </g>
            <g transform="matrix(6.12323e-17,-1,1,6.12323e-17,2356.3,1842.52)">
                <g transform="matrix(50,0,0,50,966.734,863.911)">
                    <path d="M0.176,-0.237L0.024,-0.237C0.023,-0.193 0.031,-0.155 0.048,-0.123C0.065,-0.091 0.087,-0.065 0.116,-0.044C0.144,-0.023 0.177,-0.008 0.214,0.002C0.251,0.011 0.289,0.016 0.328,0.016C0.377,0.016 0.42,0.01 0.457,-0.001C0.494,-0.012 0.525,-0.028 0.55,-0.049C0.575,-0.069 0.593,-0.093 0.606,-0.121C0.619,-0.149 0.625,-0.179 0.625,-0.212C0.625,-0.252 0.616,-0.285 0.6,-0.311C0.583,-0.336 0.562,-0.357 0.539,-0.372C0.516,-0.387 0.492,-0.399 0.469,-0.406C0.445,-0.413 0.426,-0.417 0.413,-0.42C0.368,-0.431 0.332,-0.441 0.305,-0.448C0.277,-0.455 0.255,-0.463 0.24,-0.47C0.224,-0.477 0.213,-0.485 0.208,-0.494C0.203,-0.503 0.2,-0.514 0.2,-0.528C0.2,-0.543 0.203,-0.556 0.21,-0.566C0.217,-0.576 0.225,-0.584 0.236,-0.591C0.246,-0.598 0.257,-0.602 0.27,-0.605C0.283,-0.608 0.295,-0.609 0.308,-0.609C0.327,-0.609 0.345,-0.607 0.362,-0.604C0.378,-0.601 0.392,-0.595 0.405,-0.587C0.418,-0.579 0.428,-0.568 0.436,-0.554C0.443,-0.54 0.448,-0.522 0.449,-0.501L0.601,-0.501C0.601,-0.542 0.593,-0.578 0.578,-0.607C0.562,-0.636 0.541,-0.659 0.514,-0.678C0.487,-0.697 0.457,-0.71 0.423,-0.719C0.388,-0.727 0.352,-0.731 0.315,-0.731C0.283,-0.731 0.251,-0.727 0.219,-0.718C0.187,-0.709 0.158,-0.696 0.133,-0.678C0.108,-0.66 0.087,-0.638 0.072,-0.611C0.056,-0.584 0.048,-0.552 0.048,-0.515C0.048,-0.482 0.054,-0.455 0.067,-0.432C0.079,-0.409 0.095,-0.389 0.115,-0.374C0.135,-0.359 0.158,-0.346 0.183,-0.337C0.208,-0.327 0.234,-0.319 0.261,-0.312C0.287,-0.305 0.313,-0.298 0.338,-0.292C0.363,-0.286 0.386,-0.279 0.406,-0.271C0.426,-0.263 0.442,-0.253 0.455,-0.241C0.467,-0.229 0.473,-0.213 0.473,-0.194C0.473,-0.176 0.468,-0.161 0.459,-0.15C0.45,-0.138 0.438,-0.129 0.424,-0.122C0.41,-0.115 0.395,-0.111 0.379,-0.109C0.363,-0.106 0.348,-0.105 0.334,-0.105C0.313,-0.105 0.293,-0.108 0.274,-0.113C0.255,-0.117 0.238,-0.125 0.224,-0.136C0.209,-0.146 0.198,-0.159 0.189,-0.176C0.18,-0.193 0.176,-0.213 0.176,-0.237Z" style="fill-rule:nonzero;"/>
                </g>
                <g transform="matrix(50,0,0,50,999.184,863.911)">
                    <path d="M0.195,-0.354C0.195,-0.385 0.199,-0.416 0.206,-0.445C0.213,-0.474 0.224,-0.501 0.239,-0.524C0.254,-0.547 0.274,-0.565 0.299,-0.579C0.324,-0.592 0.354,-0.599 0.389,-0.599C0.424,-0.599 0.454,-0.592 0.479,-0.579C0.504,-0.565 0.524,-0.547 0.539,-0.524C0.554,-0.501 0.566,-0.474 0.573,-0.445C0.58,-0.416 0.583,-0.385 0.583,-0.354C0.583,-0.324 0.58,-0.295 0.573,-0.267C0.566,-0.238 0.554,-0.213 0.539,-0.19C0.524,-0.167 0.504,-0.149 0.479,-0.136C0.454,-0.122 0.424,-0.115 0.389,-0.115C0.354,-0.115 0.324,-0.122 0.299,-0.136C0.274,-0.149 0.254,-0.167 0.239,-0.19C0.224,-0.213 0.213,-0.238 0.206,-0.267C0.199,-0.295 0.195,-0.324 0.195,-0.354ZM0.038,-0.354C0.038,-0.302 0.046,-0.254 0.062,-0.209C0.078,-0.164 0.101,-0.124 0.131,-0.091C0.161,-0.058 0.198,-0.032 0.242,-0.013C0.285,0.007 0.334,0.016 0.389,0.016C0.444,0.016 0.494,0.007 0.537,-0.013C0.58,-0.032 0.617,-0.058 0.647,-0.091C0.677,-0.124 0.7,-0.164 0.716,-0.209C0.732,-0.254 0.74,-0.302 0.74,-0.354C0.74,-0.407 0.732,-0.457 0.716,-0.503C0.7,-0.548 0.677,-0.588 0.647,-0.622C0.617,-0.656 0.58,-0.683 0.537,-0.702C0.494,-0.721 0.444,-0.731 0.389,-0.731C0.334,-0.731 0.285,-0.721 0.242,-0.702C0.198,-0.683 0.161,-0.656 0.131,-0.622C0.101,-0.588 0.078,-0.548 0.062,-0.503C0.046,-0.457 0.038,-0.407 0.038,-0.354Z" style="fill-rule:nonzero;"/>
                </g>
                <g transform="matrix(50,0,0,50,1038.08,863.911)">
                    <path d="M0.069,-0.714L0.069,-0L0.574,-0L0.574,-0.132L0.226,-0.132L0.226,-0.714L0.069,-0.714Z" style="fill-rule:nonzero;"/>
                </g>
                <g transform="matrix(50,0,0,50,1067.73,863.911)">
                    <path d="M0.392,-0L0.392,-0.7L0.279,-0.7C0.275,-0.673 0.267,-0.651 0.254,-0.633C0.241,-0.615 0.226,-0.6 0.208,-0.59C0.189,-0.579 0.168,-0.571 0.146,-0.567C0.123,-0.562 0.099,-0.56 0.074,-0.561L0.074,-0.454L0.25,-0.454L0.25,-0L0.392,-0Z" style="fill-rule:nonzero;"/>
                </g>
                <g transform="matrix(50,0,0,50,1095.53,863.911)">
                    <path d="M0.175,-0.596L0.464,-0.307L0.175,-0.018L0.175,-0.596Z" style="fill-rule:nonzero;"/>
                </g>
            </g>
            <g transform="matrix(6.12323e-17,-1,1,6.12323e-17,2496.06,1842.52)">
                <g transform="matrix(50,0,0,50,966.734,863.911)">
                    <path d="M0.176,-0.237L0.024,-0.237C0.023,-0.193 0.031,-0.155 0.048,-0.123C0.065,-0.091 0.087,-0.065 0.116,-0.044C0.144,-0.023 0.177,-0.008 0.214,0.002C0.251,0.011 0.289,0.016 0.328,0.016C0.377,0.016 0.42,0.01 0.457,-0.001C0.494,-0.012 0.525,-0.028 0.55,-0.049C0.575,-0.069 0.593,-0.093 0.606,-0.121C0.619,-0.149 0.625,-0.179 0.625,-0.212C0.625,-0.252 0.616,-0.285 0.6,-0.311C0.583,-0.336 0.562,-0.357 0.539,-0.372C0.516,-0.387 0.492,-0.399 0.469,-0.406C0.445,-0.413 0.426,-0.417 0.413,-0.42C0.368,-0.431 0.332,-0.441 0.305,-0.448C0.277,-0.455 0.255,-0.463 0.24,-0.47C0.224,-0.477 0.213,-0.485 0.208,-0.494C0.203,-0.503 0.2,-0.514 0.2,-0.528C0.2,-0.543 0.203,-0.556 0.21,-0.566C0.217,-0.576 0.225,-0.584 0.236,-0.591C0.246,-0.598 0.257,-0.602 0.27,-0.605C0.283,-0.608 0.295,-0.609 0.308,-0.609C0.327,-0.609 0.345,-0.607 0.362,-0.604C0.378,-0.601 0.392,-0.595 0.405,-0.587C0.418,-0.579 0.428,-0.568 0.436,-0.554C0.443,-0.54 0.448,-0.522 0.449,-0.501L0.601,-0.501C0.601,-0.542 0.593,-0.578 0.578,-0.607C0.562,-0.636 0.541,-0.659 0.514,-0.678C0.487,-0.697 0.457,-0.71 0.423,-0.719C0.388,-0.727 0.352,-0.731 0.315,-0.731C0.283,-0.731 0.251,-0.727 0.219,-0.718C0.187,-0.709 0.158,-0.696 0.133,-0.678C0.108,-0.66 0.087,-0.638 0.072,-0.611C0.056,-0.584 0.048,-0.552 0.048,-0.515C0.048,-0.482 0.054,-0.455 0.067,-0.432C0.079,-0.409 0.095,-0.389 0.115,-0.374C0.135,-0.359 0.158,-0.346 0.183,-0.337C0.208,-0.327 0.234,-0.319 0.261,-0.312C0.287,-0.305 0.313,-0.298 0.338,-0.292C0.363,-0.286 0.386,-0.279 0.406,-0.271C0.426,-0.263 0.442,-0.253 0.455,-0.241C0.467,-0.229 0.473,-0.213 0.473,-0.194C0.473,-0.176 0.468,-0.161 0.459,-0.15C0.45,-0.138 0.438,-0.129 0.424,-0.122C0.41,-0.115 0.395,-0.111 0.379,-0.109C0.363,-0.106 0.348,-0.105 0.334,-0.105C0.313,-0.105 0.293,-0.108 0.274,-0.113C0.255,-0.117 0.238,-0.125 0.224,-0.136C0.209,-0.146 0.198,-0.159 0.189,-0.176C0.18,-0.193 0.176,-0.213 0.176,-0.237Z" style="fill-rule:nonzero;"/>
                </g>
                <g transform="matrix(50,0,0,50,999.184,863.911)">
                    <path d="M0.195,-0.354C0.195,-0.385 0.199,-0.416 0.206,-0.445C0.213,-0.474 0.224,-0.501 0.239,-0.524C0.254,-0.547 0.274,-0.565 0.299,-0.579C0.324,-0.592 0.354,-0.599 0.389,-0.599C0.424,-0.599 0.454,-0.592 0.479,-0.579C0.504,-0.565 0.524,-0.547 0.539,-0.524C0.554,-0.501 0.566,-0.474 0.573,-0.445C0.58,-0.416 0.583,-0.385 0.583,-0.354C0.583,-0.324 0.58,-0.295 0.573,-0.267C0.566,-0.238 0.554,-0.213 0.539,-0.19C0.524,-0.167 0.504,-0.149 0.479,-0.136C0.454,-0.122 0.424,-0.115 0.389,-0.115C0.354,-0.115 0.324,-0.122 0.299,-0.136C0.274,-0.149 0.254,-0.167 0.239,-0.19C0.224,-0.213 0.213,-0.238 0.206,-0.267C0.199,-0.295 0.195,-0.324 0.195,-0.354ZM0.038,-0.354C0.038,-0.302 0.046,-0.254 0.062,-0.209C0.078,-0.164 0.101,-0.124 0.131,-0.091C0.161,-0.058 0.198,-0.032 0.242,-0.013C0.285,0.007 0.334,0.016 0.389,0.016C0.444,0.016 0.494,0.007 0.537,-0.013C0.58,-0.032 0.617,-0.058 0.647,-0.091C0.677,-0.124 0.7,-0.164 0.716,-0.209C0.732,-0.254 0.74,-0.302 0.74,-0.354C0.74,-0.407 0.732,-0.457 0.716,-0.503C0.7,-0.548 0.677,-0.588 0.647,-0.622C0.617,-0.656 0.58,-0.683 0.537,-0.702C0.494,-0.721 0.444,-0.731 0.389,-0.731C0.334,-0.731 0.285,-0.721 0.242,-0.702C0.198,-0.683 0.161,-0.656 0.131,-0.622C0.101,-0.588 0.078,-0.548 0.062,-0.503C0.046,-0.457 0.038,-0.407 0.038,-0.354Z" style="fill-rule:nonzero;"/>
                </g>
                <g transform="matrix(50,0,0,50,1038.08,863.911)">
                    <path d="M0.069,-0.714L0.069,-0L0.574,-0L0.574,-0.132L0.226,-0.132L0.226,-0.714L0.069,-0.714Z" style="fill-rule:nonzero;"/>
                </g>
                <g transform="matrix(50,0,0,50,1067.73,863.911)">
                    <path d="M0.037,-0.431L0.173,-0.431C0.173,-0.45 0.175,-0.468 0.179,-0.488C0.182,-0.507 0.188,-0.524 0.197,-0.54C0.206,-0.555 0.217,-0.568 0.232,-0.578C0.246,-0.587 0.263,-0.592 0.284,-0.592C0.315,-0.592 0.34,-0.583 0.36,-0.564C0.379,-0.545 0.389,-0.518 0.389,-0.484C0.389,-0.463 0.384,-0.444 0.375,-0.427C0.365,-0.41 0.353,-0.395 0.339,-0.382C0.324,-0.369 0.308,-0.357 0.291,-0.346C0.274,-0.335 0.257,-0.324 0.242,-0.313C0.212,-0.292 0.184,-0.272 0.157,-0.252C0.13,-0.232 0.106,-0.21 0.086,-0.187C0.066,-0.163 0.05,-0.136 0.039,-0.106C0.027,-0.076 0.021,-0.041 0.021,-0L0.535,-0L0.535,-0.122L0.204,-0.122C0.221,-0.146 0.241,-0.167 0.264,-0.185C0.287,-0.203 0.31,-0.22 0.334,-0.236C0.358,-0.251 0.382,-0.267 0.406,-0.283C0.429,-0.299 0.45,-0.317 0.469,-0.337C0.488,-0.356 0.503,-0.379 0.514,-0.404C0.525,-0.429 0.531,-0.46 0.531,-0.495C0.531,-0.529 0.525,-0.56 0.512,-0.587C0.499,-0.614 0.481,-0.637 0.459,-0.656C0.437,-0.675 0.411,-0.689 0.383,-0.699C0.354,-0.709 0.323,-0.714 0.291,-0.714C0.249,-0.714 0.212,-0.707 0.18,-0.693C0.147,-0.678 0.12,-0.658 0.099,-0.633C0.078,-0.607 0.062,-0.577 0.051,-0.543C0.04,-0.508 0.036,-0.471 0.037,-0.431Z" style="fill-rule:nonzero;"/>
                </g>
                <g transform="matrix(50,0,0,50,1095.53,863.911)">
                    <path d="M0.175,-0.596L0.464,-0.307L0.175,-0.018L0.175,-0.596Z" style="fill-rule:nonzero;"/>
                </g>
            </g>
            <g transform="matrix(6.12323e-17,-1,1,6.12323e-17,2634.84,1842.52)">
                <g transform="matrix(50,0,0,50,966.734,863.911)">
                    <path d="M0.176,-0.237L0.024,-0.237C0.023,-0.193 0.031,-0.155 0.048,-0.123C0.065,-0.091 0.087,-0.065 0.116,-0.044C0.144,-0.023 0.177,-0.008 0.214,0.002C0.251,0.011 0.289,0.016 0.328,0.016C0.377,0.016 0.42,0.01 0.457,-0.001C0.494,-0.012 0.525,-0.028 0.55,-0.049C0.575,-0.069 0.593,-0.093 0.606,-0.121C0.619,-0.149 0.625,-0.179 0.625,-0.212C0.625,-0.252 0.616,-0.285 0.6,-0.311C0.583,-0.336 0.562,-0.357 0.539,-0.372C0.516,-0.387 0.492,-0.399 0.469,-0.406C0.445,-0.413 0.426,-0.417 0.413,-0.42C0.368,-0.431 0.332,-0.441 0.305,-0.448C0.277,-0.455 0.255,-0.463 0.24,-0.47C0.224,-0.477 0.213,-0.485 0.208,-0.494C0.203,-0.503 0.2,-0.514 0.2,-0.528C0.2,-0.543 0.203,-0.556 0.21,-0.566C0.217,-0.576 0.225,-0.584 0.236,-0.591C0.246,-0.598 0.257,-0.602 0.27,-0.605C0.283,-0.608 0.295,-0.609 0.308,-0.609C0.327,-0.609 0.345,-0.607 0.362,-0.604C0.378,-0.601 0.392,-0.595 0.405,-0.587C0.418,-0.579 0.428,-0.568 0.436,-0.554C0.443,-0.54 0.448,-0.522 0.449,-0.501L0.601,-0.501C0.601,-0.542 0.593,-0.578 0.578,-0.607C0.562,-0.636 0.541,-0.659 0.514,-0.678C0.487,-0.697 0.457,-0.71 0.423,-0.719C0.388,-0.727 0.352,-0.731 0.315,-0.731C0.283,-0.731 0.251,-0.727 0.219,-0.718C0.187,-0.709 0.158,-0.696 0.133,-0.678C0.108,-0.66 0.087,-0.638 0.072,-0.611C0.056,-0.584 0.048,-0.552 0.048,-0.515C0.048,-0.482 0.054,-0.455 0.067,-0.432C0.079,-0.409 0.095,-0.389 0.115,-0.374C0.135,-0.359 0.158,-0.346 0.183,-0.337C0.208,-0.327 0.234,-0.319 0.261,-0.312C0.287,-0.305 0.313,-0.298 0.338,-0.292C0.363,-0.286 0.386,-0.279 0.406,-0.271C0.426,-0.263 0.442,-0.253 0.455,-0.241C0.467,-0.229 0.473,-0.213 0.473,-0.194C0.473,-0.176 0.468,-0.161 0.459,-0.15C0.45,-0.138 0.438,-0.129 0.424,-0.122C0.41,-0.115 0.395,-0.111 0.379,-0.109C0.363,-0.106 0.348,-0.105 0.334,-0.105C0.313,-0.105 0.293,-0.108 0.274,-0.113C0.255,-0.117 0.238,-0.125 0.224,-0.136C0.209,-0.146 0.198,-0.159 0.189,-0.176C0.18,-0.193 0.176,-0.213 0.176,-0.237Z" style="fill-rule:nonzero;"/>
                </g>
                <g transform="matrix(50,0,0,50,999.184,863.911)">
                    <path d="M0.195,-0.354C0.195,-0.385 0.199,-0.416 0.206,-0.445C0.213,-0.474 0.224,-0.501 0.239,-0.524C0.254,-0.547 0.274,-0.565 0.299,-0.579C0.324,-0.592 0.354,-0.599 0.389,-0.599C0.424,-0.599 0.454,-0.592 0.479,-0.579C0.504,-0.565 0.524,-0.547 0.539,-0.524C0.554,-0.501 0.566,-0.474 0.573,-0.445C0.58,-0.416 0.583,-0.385 0.583,-0.354C0.583,-0.324 0.58,-0.295 0.573,-0.267C0.566,-0.238 0.554,-0.213 0.539,-0.19C0.524,-0.167 0.504,-0.149 0.479,-0.136C0.454,-0.122 0.424,-0.115 0.389,-0.115C0.354,-0.115 0.324,-0.122 0.299,-0.136C0.274,-0.149 0.254,-0.167 0.239,-0.19C0.224,-0.213 0.213,-0.238 0.206,-0.267C0.199,-0.295 0.195,-0.324 0.195,-0.354ZM0.038,-0.354C0.038,-0.302 0.046,-0.254 0.062,-0.209C0.078,-0.164 0.101,-0.124 0.131,-0.091C0.161,-0.058 0.198,-0.032 0.242,-0.013C0.285,0.007 0.334,0.016 0.389,0.016C0.444,0.016 0.494,0.007 0.537,-0.013C0.58,-0.032 0.617,-0.058 0.647,-0.091C0.677,-0.124 0.7,-0.164 0.716,-0.209C0.732,-0.254 0.74,-0.302 0.74,-0.354C0.74,-0.407 0.732,-0.457 0.716,-0.503C0.7,-0.548 0.677,-0.588 0.647,-0.622C0.617,-0.656 0.58,-0.683 0.537,-0.702C0.494,-0.721 0.444,-0.731 0.389,-0.731C0.334,-0.731 0.285,-0.721 0.242,-0.702C0.198,-0.683 0.161,-0.656 0.131,-0.622C0.101,-0.588 0.078,-0.548 0.062,-0.503C0.046,-0.457 0.038,-0.407 0.038,-0.354Z" style="fill-rule:nonzero;"/>
                </g>
                <g transform="matrix(50,0,0,50,1038.08,863.911)">
                    <path d="M0.069,-0.714L0.069,-0L0.574,-0L0.574,-0.132L0.226,-0.132L0.226,-0.714L0.069,-0.714Z" style="fill-rule:nonzero;"/>
                </g>
                <g transform="matrix(50,0,0,50,1067.73,863.911)">
                    <path d="M0.037,-0.431L0.173,-0.431C0.173,-0.45 0.175,-0.468 0.179,-0.488C0.182,-0.507 0.188,-0.524 0.197,-0.54C0.206,-0.555 0.217,-0.568 0.232,-0.578C0.246,-0.587 0.263,-0.592 0.284,-0.592C0.315,-0.592 0.34,-0.583 0.36,-0.564C0.379,-0.545 0.389,-0.518 0.389,-0.484C0.389,-0.463 0.384,-0.444 0.375,-0.427C0.365,-0.41 0.353,-0.395 0.339,-0.382C0.324,-0.369 0.308,-0.357 0.291,-0.346C0.274,-0.335 0.257,-0.324 0.242,-0.313C0.212,-0.292 0.184,-0.272 0.157,-0.252C0.13,-0.232 0.106,-0.21 0.086,-0.187C0.066,-0.163 0.05,-0.136 0.039,-0.106C0.027,-0.076 0.021,-0.041 0.021,-0L0.535,-0L0.535,-0.122L0.204,-0.122C0.221,-0.146 0.241,-0.167 0.264,-0.185C0.287,-0.203 0.31,-0.22 0.334,-0.236C0.358,-0.251 0.382,-0.267 0.406,-0.283C0.429,-0.299 0.45,-0.317 0.469,-0.337C0.488,-0.356 0.503,-0.379 0.514,-0.404C0.525,-0.429 0.531,-0.46 0.531,-0.495C0.531,-0.529 0.525,-0.56 0.512,-0.587C0.499,-0.614 0.481,-0.637 0.459,-0.656C0.437,-0.675 0.411,-0.689 0.383,-0.699C0.354,-0.709 0.323,-0.714 0.291,-0.714C0.249,-0.714 0.212,-0.707 0.18,-0.693C0.147,-0.678 0.12,-0.658 0.099,-0.633C0.078,-0.607 0.062,-0.577 0.051,-0.543C0.04,-0.508 0.036,-0.471 0.037,-0.431Z" style="fill-rule:nonzero;"/>
                </g>
                <g transform="matrix(50,0,0,50,1095.53,863.911)">
                    <path d="M0.175,-0.596L0.464,-0.307L0.175,-0.018L0.175,-0.596Z" style="fill-rule:nonzero;"/>
                </g>
            </g>
        </g>
    </g>
    <g transform="matrix(6.12323e-17,1,-1,6.12323e-17,1015.75,-1045.28)">
        <g>
            <g transform="matrix(2.02222,0,0,1.57895,-2656.17,-205.139)">
                <rect x="2598.43" y="354.331" width="531.496" height="224.409" style="fill:none;stroke:rgb(0,255,0);stroke-width:0.46px;"/>
            </g>
            <g transform="matrix(1,0,0,1,-118.11,0)">
                <rect x="2716.53" y="354.331" width="118.11" height="354.331" style="fill:none;stroke:rgb(0,255,0);stroke-width:0.83px;"/>
            </g>
            <g transform="matrix(1,0,0,1,838.583,0)">
                <rect x="2716.53" y="354.331" width="118.11" height="354.331" style="fill:none;stroke:rgb(0,255,0);stroke-width:0.83px;"/>
            </g>
            <g transform="matrix(1.03333,0,0,1.03333,2016.73,-353.346)">
                <circle cx="620.079" cy="856.299" r="17.717" style="fill:none;stroke:rgb(255,0,0);stroke-width:0.81px;"/>
            </g>
            <g transform="matrix(1.03333,0,0,1.03333,2973.43,-353.346)">
                <circle cx="620.079" cy="856.299" r="17.717" style="fill:none;stroke:rgb(255,0,0);stroke-width:0.81px;"/>
            </g>
        </g>
        <g>
            <g transform="matrix(1,0,0,1,-4.54747e-13,-11.811)">
                <path d="M2716.53,732.283L2716.53,791.339" style="fill:none;stroke:black;stroke-width:8.33px;"/>
                <g transform="matrix(1,0,0,1,139.764,0)">
                    <path d="M2716.53,732.283L2716.53,791.339" style="fill:none;stroke:black;stroke-width:8.33px;"/>
                </g>
                <g transform="matrix(1,0,0,1,279.528,0)">
                    <path d="M2716.53,732.283L2716.53,791.339" style="fill:none;stroke:black;stroke-width:8.33px;"/>
                </g>
                <g transform="matrix(1,0,0,1,419.291,0)">
                    <path d="M2716.53,732.283L2716.53,791.339" style="fill:none;stroke:black;stroke-width:8.33px;"/>
                </g>
                <g transform="matrix(1,0,0,1,559.055,0)">
                    <path d="M2716.53,732.283L2716.53,791.339" style="fill:none;stroke:black;stroke-width:8.33px;"/>
                </g>
                <g transform="matrix(1,0,0,1,698.819,0)">
                    <path d="M2716.53,732.283L2716.53,791.339" style="fill:none;stroke:black;stroke-width:8.33px;"/>
                </g>
                <g transform="matrix(1,0,0,1,838.583,0)">
                    <path d="M2716.53,732.283L2716.53,791.339" style="fill:none;stroke:black;stroke-width:8.33px;"/>
                </g>
            </g>
            <g transform="matrix(6.12323e-17,-1,1,6.12323e-17,1937.01,1842.52)">
                <g transform="matrix(50,0,0,50,966.734,863.911)">
                    <path d="M0.176,-0.237L0.024,-0.237C0.023,-0.193 0.031,-0.155 0.048,-0.123C0.065,-0.091 0.087,-0.065 0.116,-0.044C0.144,-0.023 0.177,-0.008 0.214,0.002C0.251,0.011 0.289,0.016 0.328,0.016C0.377,0.016 0.42,0.01 0.457,-0.001C0.494,-0.012 0.525,-0.028 0.55,-0.049C0.575,-0.069 0.593,-0.093 0.606,-0.121C0.619,-0.149 0.625,-0.179 0.625,-0.212C0.625,-0.252 0.616,-0.285 0.6,-0.311C0.583,-0.336 0.562,-0.357 0.539,-0.372C0.516,-0.387 0.492,-0.399 0.469,-0.406C0.445,-0.413 0.426,-0.417 0.413,-0.42C0.368,-0.431 0.332,-0.441 0.305,-0.448C0.277,-0.455 0.255,-0.463 0.24,-0.47C0.224,-0.477 0.213,-0.485 0.208,-0.494C0.203,-0.503 0.2,-0.514 0.2,-0.528C0.2,-0.543 0.203,-0.556 0.21,-0.566C0.217,-0.576 0.225,-0.584 0.236,-0.591C0.246,-0.598 0.257,-0.602 0.27,-0.605C0.283,-0.608 0.295,-0.609 0.308,-0.609C0.327,-0.609 0.345,-0.607 0.362,-0.604C0.378,-0.601 0.392,-0.595 0.405,-0.587C0.418,-0.579 0.428,-0.568 0.436,-0.554C0.443,-0.54 0.448,-0.522 0.449,-0.501L0.601,-0.501C0.601,-0.542 0.593,-0.578 0.578,-0.607C0.562,-0.636 0.541,-0.659 0.514,-0.678C0.487,-0.697 0.457,-0.71 0.423,-0.719C0.388,-0.727 0.352,-0.731 0.315,-0.731C0.283,-0.731 0.251,-0.727 0.219,-0.718C0.187,-0.709 0.158,-0.696 0.133,-0.678C0.108,-0.66 0.087,-0.638 0.072,-0.611C0.056,-0.584 0.048,-0.552 0.048,-0.515C0.048,-0.482 0.054,-0.455 0.067,-0.432C0.079,-0.409 0.095,-0.389 0.115,-0.374C0.135,-0.359 0.158,-0.346 0.183,-0.337C0.208,-0.327 0.234,-0.319 0.261,-0.312C0.287,-0.305 0.313,-0.298 0.338,-0.292C0.363,-0.286 0.386,-0.279 0.406,-0.271C0.426,-0.263 0.442,-0.253 0.455,-0.241C0.467,-0.229 0.473,-0.213 0.473,-0.194C0.473,-0.176 0.468,-0.161 0.459,-0.15C0.45,-0.138 0.438,-0.129 0.424,-0.122C0.41,-0.115 0.395,-0.111 0.379,-0.109C0.363,-0.106 0.348,-0.105 0.334,-0.105C0.313,-0.105 0.293,-0.108 0.274,-0.113C0.255,-0.117 0.238,-0.125 0.224,-0.136C0.209,-0.146 0.198,-0.159 0.189,-0.176C0.18,-0.193 0.176,-0.213 0.176,-0.237Z" style="fill-rule:nonzero;"/>
                </g>
                <g transform="matrix(50,0,0,50,999.184,863.911)">
                    <path d="M0.195,-0.354C0.195,-0.385 0.199,-0.416 0.206,-0.445C0.213,-0.474 0.224,-0.501 0.239,-0.524C0.254,-0.547 0.274,-0.565 0.299,-0.579C0.324,-0.592 0.354,-0.599 0.389,-0.599C0.424,-0.599 0.454,-0.592 0.479,-0.579C0.504,-0.565 0.524,-0.547 0.539,-0.524C0.554,-0.501 0.566,-0.474 0.573,-0.445C0.58,-0.416 0.583,-0.385 0.583,-0.354C0.583,-0.324 0.58,-0.295 0.573,-0.267C0.566,-0.238 0.554,-0.213 0.539,-0.19C0.524,-0.167 0.504,-0.149 0.479,-0.136C0.454,-0.122 0.424,-0.115 0.389,-0.115C0.354,-0.115 0.324,-0.122 0.299,-0.136C0.274,-0.149 0.254,-0.167 0.239,-0.19C0.224,-0.213 0.213,-0.238 0.206,-0.267C0.199,-0.295 0.195,-0.324 0.195,-0.354ZM0.038,-0.354C0.038,-0.302 0.046,-0.254 0.062,-0.209C0.078,-0.164 0.101,-0.124 0.131,-0.091C0.161,-0.058 0.198,-0.032 0.242,-0.013C0.285,0.007 0.334,0.016 0.389,0.016C0.444,0.016 0.494,0.007 0.537,-0.013C0.58,-0.032 0.617,-0.058 0.647,-0.091C0.677,-0.124 0.7,-0.164 0.716,-0.209C0.732,-0.254 0.74,-0.302 0.74,-0.354C0.74,-0.407 0.732,-0.457 0.716,-0.503C0.7,-0.548 0.677,-0.588 0.647,-0.622C0.617,-0.656 0.58,-0.683 0.537,-0.702C0.494,-0.721 0.444,-0.731 0.389,-0.731C0.334,-0.731 0.285,-0.721 0.242,-0.702C0.198,-0.683 0.161,-0.656 0.131,-0.622C0.101,-0.588 0.078,-0.548 0.062,-0.503C0.046,-0.457 0.038,-0.407 0.038,-0.354Z" style="fill-rule:nonzero;"/>
                </g>
                <g transform="matrix(50,0,0,50,1038.08,863.911)">
                    <path d="M0.069,-0.714L0.069,-0L0.574,-0L0.574,-0.132L0.226,-0.132L0.226,-0.714L0.069,-0.714Z" style="fill-rule:nonzero;"/>
                </g>
                <g transform="matrix(50,0,0,50,1067.73,863.911)">
                    <path d="M0.228,-0.417L0.228,-0.317C0.245,-0.317 0.264,-0.317 0.283,-0.316C0.302,-0.315 0.319,-0.311 0.335,-0.305C0.351,-0.298 0.364,-0.288 0.375,-0.274C0.385,-0.26 0.39,-0.24 0.39,-0.213C0.39,-0.179 0.379,-0.152 0.357,-0.133C0.335,-0.113 0.308,-0.103 0.276,-0.103C0.255,-0.103 0.238,-0.107 0.223,-0.114C0.208,-0.121 0.195,-0.131 0.185,-0.144C0.175,-0.156 0.167,-0.171 0.162,-0.188C0.157,-0.204 0.154,-0.222 0.153,-0.241L0.018,-0.241C0.017,-0.2 0.023,-0.164 0.036,-0.133C0.048,-0.102 0.065,-0.075 0.088,-0.054C0.111,-0.032 0.138,-0.015 0.171,-0.004C0.203,0.007 0.239,0.013 0.278,0.013C0.312,0.013 0.345,0.008 0.376,-0.002C0.407,-0.012 0.435,-0.027 0.459,-0.046C0.483,-0.065 0.502,-0.089 0.517,-0.118C0.531,-0.147 0.538,-0.179 0.538,-0.216C0.538,-0.256 0.527,-0.29 0.505,-0.319C0.483,-0.348 0.453,-0.366 0.414,-0.375L0.414,-0.377C0.447,-0.386 0.471,-0.404 0.488,-0.43C0.504,-0.456 0.512,-0.486 0.512,-0.52C0.512,-0.551 0.505,-0.579 0.491,-0.603C0.477,-0.627 0.459,-0.647 0.437,-0.664C0.414,-0.681 0.389,-0.693 0.361,-0.702C0.333,-0.71 0.305,-0.714 0.277,-0.714C0.241,-0.714 0.208,-0.708 0.179,-0.697C0.15,-0.685 0.125,-0.668 0.104,-0.647C0.083,-0.626 0.066,-0.6 0.055,-0.571C0.043,-0.541 0.036,-0.508 0.035,-0.472L0.17,-0.472C0.169,-0.508 0.178,-0.538 0.197,-0.562C0.215,-0.585 0.242,-0.597 0.278,-0.597C0.304,-0.597 0.327,-0.589 0.347,-0.573C0.367,-0.557 0.377,-0.534 0.377,-0.504C0.377,-0.484 0.372,-0.468 0.363,-0.456C0.353,-0.444 0.341,-0.435 0.326,-0.429C0.311,-0.422 0.294,-0.418 0.277,-0.417C0.26,-0.416 0.243,-0.416 0.228,-0.417Z" style="fill-rule:nonzero;"/>
                </g>
                <g transform="matrix(50,0,0,50,1095.53,863.911)">
                    <path d="M0.175,-0.596L0.464,-0.307L0.175,-0.018L0.175,-0.596Z" style="fill-rule:nonzero;"/>
                </g>
            </g>
            <g transform="matrix(6.12323e-17,-1,1,6.12323e-17,2076.77,1842.52)">
                <g transform="matrix(50,0,0,50,966.734,863.911)">
                    <path d="M0.176,-0.237L0.024,-0.237C0.023,-0.193 0.031,-0.155 0.048,-0.123C0.065,-0.091 0.087,-0.065 0.116,-0.044C0.144,-0.023 0.177,-0.008 0.214,0.002C0.251,0.011 0.289,0.016 0.328,0.016C0.377,0.016 0.42,0.01 0.457,-0.001C0.494,-0.012 0.525,-0.028 0.55,-0.049C0.575,-0.069 0.593,-0.093 0.606,-0.121C0.619,-0.149 0.625,-0.179 0.625,-0.212C0.625,-0.252 0.616,-0.285 0.6,-0.311C0.583,-0.336 0.562,-0.357 0.539,-0.372C0.516,-0.387 0.492,-0.399 0.469,-0.406C0.445,-0.413 0.426,-0.417 0.413,-0.42C0.368,-0.431 0.332,-0.441 0.305,-0.448C0.277,-0.455 0.255,-0.463 0.24,-0.47C0.224,-0.477 0.213,-0.485 0.208,-0.494C0.203,-0.503 0.2,-0.514 0.2,-0.528C0.2,-0.543 0.203,-0.556 0.21,-0.566C0.217,-0.576 0.225,-0.584 0.236,-0.591C0.246,-0.598 0.257,-0.602 0.27,-0.605C0.283,-0.608 0.295,-0.609 0.308,-0.609C0.327,-0.609 0.345,-0.607 0.362,-0.604C0.378,-0.601 0.392,-0.595 0.405,-0.587C0.418,-0.579 0.428,-0.568 0.436,-0.554C0.443,-0.54 0.448,-0.522 0.449,-0.501L0.601,-0.501C0.601,-0.542 0.593,-0.578 0.578,-0.607C0.562,-0.636 0.541,-0.659 0.514,-0.678C0.487,-0.697 0.457,-0.71 0.423,-0.719C0.388,-0.727 0.352,-0.731 0.315,-0.731C0.283,-0.731 0.251,-0.727 0.219,-0.718C0.187,-0.709 0.158,-0.696 0.133,-0.678C0.108,-0.66 0.087,-0.638 0.072,-0.611C0.056,-0.584 0.048,-0.552 0.048,-0.515C0.048,-0.482 0.054,-0.455 0.067,-0.432C0.079,-0.409 0.095,-0.389 0.115,-0.374C0.135,-0.359 0.158,-0.346 0.183,-0.337C0.208,-0.327 0.234,-0.319 0.261,-0.312C0.287,-0.305 0.313,-0.298 0.338,-0.292C0.363,-0.286 0.386,-0.279 0.406,-0.271C0.426,-0.263 0.442,-0.253 0.455,-0.241C0.467,-0.229 0.473,-0.213 0.473,-0.194C0.473,-0.176 0.468,-0.161 0.459,-0.15C0.45,-0.138 0.438,-0.129 0.424,-0.122C0.41,-0.115 0.395,-0.111 0.379,-0.109C0.363,-0.106 0.348,-0.105 0.334,-0.105C0.313,-0.105 0.293,-0.108 0.274,-0.113C0.255,-0.117 0.238,-0.125 0.224,-0.136C0.209,-0.146 0.198,-0.159 0.189,-0.176C0.18,-0.193 0.176,-0.213 0.176,-0.237Z" style="fill-rule:nonzero;"/>
                </g>
                <g transform="matrix(50,0,0,50,999.184,863.911)">
                    <path d="M0.195,-0.354C0.195,-0.385 0.199,-0.416 0.206,-0.445C0.213,-0.474 0.224,-0.501 0.239,-0.524C0.254,-0.547 0.274,-0.565 0.299,-0.579C0.324,-0.592 0.354,-0.599 0.389,-0.599C0.424,-0.599 0.454,-0.592 0.479,-0.579C0.504,-0.565 0.524,-0.547 0.539,-0.524C0.554,-0.501 0.566,-0.474 0.573,-0.445C0.58,-0.416 0.583,-0.385 0.583,-0.354C0.583,-0.324 0.58,-0.295 0.573,-0.267C0.566,-0.238 0.554,-0.213 0.539,-0.19C0.524,-0.167 0.504,-0.149 0.479,-0.136C0.454,-0.122 0.424,-0.115 0.389,-0.115C0.354,-0.115 0.324,-0.122 0.299,-0.136C0.274,-0.149 0.254,-0.167 0.239,-0.19C0.224,-0.213 0.213,-0.238 0.206,-0.267C0.199,-0.295 0.195,-0.324 0.195,-0.354ZM0.038,-0.354C0.038,-0.302 0.046,-0.254 0.062,-0.209C0.078,-0.164 0.101,-0.124 0.131,-0.091C0.161,-0.058 0.198,-0.032 0.242,-0.013C0.285,0.007 0.334,0.016 0.389,0.016C0.444,0.016 0.494,0.007 0.537,-0.013C0.58,-0.032 0.617,-0.058 0.647,-0.091C0.677,-0.124 0.7,-0.164 0.716,-0.209C0.732,-0.254 0.74,-0.302 0.74,-0.354C0.74,-0.407 0.732,-0.457 0.716,-0.503C0.7,-0.548 0.677,-0.588 0.647,-0.622C0.617,-0.656 0.58,-0.683 0.537,-0.702C0.494,-0.721 0.444,-0.731 0.389,-0.731C0.334,-0.731 0.285,-0.721 0.242,-0.702C0.198,-0.683 0.161,-0.656 0.131,-0.622C0.101,-0.588 0.078,-0.548 0.062,-0.503C0.046,-0.457 0.038,-0.407 0.038,-0.354Z" style="fill-rule:nonzero;"/>
                </g>
                <g transform="matrix(50,0,0,50,1038.08,863.911)">
                    <path d="M0.069,-0.714L0.069,-0L0.574,-0L0.574,-0.132L0.226,-0.132L0.226,-0.714L0.069,-0.714Z" style="fill-rule:nonzero;"/>
                </g>
                <g transform="matrix(50,0,0,50,1067.73,863.911)">
                    <path d="M0.228,-0.417L0.228,-0.317C0.245,-0.317 0.264,-0.317 0.283,-0.316C0.302,-0.315 0.319,-0.311 0.335,-0.305C0.351,-0.298 0.364,-0.288 0.375,-0.274C0.385,-0.26 0.39,-0.24 0.39,-0.213C0.39,-0.179 0.379,-0.152 0.357,-0.133C0.335,-0.113 0.308,-0.103 0.276,-0.103C0.255,-0.103 0.238,-0.107 0.223,-0.114C0.208,-0.121 0.195,-0.131 0.185,-0.144C0.175,-0.156 0.167,-0.171 0.162,-0.188C0.157,-0.204 0.154,-0.222 0.153,-0.241L0.018,-0.241C0.017,-0.2 0.023,-0.164 0.036,-0.133C0.048,-0.102 0.065,-0.075 0.088,-0.054C0.111,-0.032 0.138,-0.015 0.171,-0.004C0.203,0.007 0.239,0.013 0.278,0.013C0.312,0.013 0.345,0.008 0.376,-0.002C0.407,-0.012 0.435,-0.027 0.459,-0.046C0.483,-0.065 0.502,-0.089 0.517,-0.118C0.531,-0.147 0.538,-0.179 0.538,-0.216C0.538,-0.256 0.527,-0.29 0.505,-0.319C0.483,-0.348 0.453,-0.366 0.414,-0.375L0.414,-0.377C0.447,-0.386 0.471,-0.404 0.488,-0.43C0.504,-0.456 0.512,-0.486 0.512,-0.52C0.512,-0.551 0.505,-0.579 0.491,-0.603C0.477,-0.627 0.459,-0.647 0.437,-0.664C0.414,-0.681 0.389,-0.693 0.361,-0.702C0.333,-0.71 0.305,-0.714 0.277,-0.714C0.241,-0.714 0.208,-0.708 0.179,-0.697C0.15,-0.685 0.125,-0.668 0.104,-0.647C0.083,-0.626 0.066,-0.6 0.055,-0.571C0.043,-0.541 0.036,-0.508 0.035,-0.472L0.17,-0.472C0.169,-0.508 0.178,-0.538 0.197,-0.562C0.215,-0.585 0.242,-0.597 0.278,-0.597C0.304,-0.597 0.327,-0.589 0.347,-0.573C0.367,-0.557 0.377,-0.534 0.377,-0.504C0.377,-0.484 0.372,-0.468 0.363,-0.456C0.353,-0.444 0.341,-0.435 0.326,-0.429C0.311,-0.422 0.294,-0.418 0.277,-0.417C0.26,-0.416 0.243,-0.416 0.228,-0.417Z" style="fill-rule:nonzero;"/>
                </g>
                <g transform="matrix(50,0,0,50,1095.53,863.911)">
                    <path d="M0.175,-0.596L0.464,-0.307L0.175,-0.018L0.175,-0.596Z" style="fill-rule:nonzero;"/>
                </g>
            </g>
            <g transform="matrix(6.12323e-17,-1,1,6.12323e-17,2216.54,1842.52)">
                <g transform="matrix(50,0,0,50,966.734,863.911)">
                    <path d="M0.176,-0.237L0.024,-0.237C0.023,-0.193 0.031,-0.155 0.048,-0.123C0.065,-0.091 0.087,-0.065 0.116,-0.044C0.144,-0.023 0.177,-0.008 0.214,0.002C0.251,0.011 0.289,0.016 0.328,0.016C0.377,0.016 0.42,0.01 0.457,-0.001C0.494,-0.012 0.525,-0.028 0.55,-0.049C0.575,-0.069 0.593,-0.093 0.606,-0.121C0.619,-0.149 0.625,-0.179 0.625,-0.212C0.625,-0.252 0.616,-0.285 0.6,-0.311C0.583,-0.336 0.562,-0.357 0.539,-0.372C0.516,-0.387 0.492,-0.399 0.469,-0.406C0.445,-0.413 0.426,-0.417 0.413,-0.42C0.368,-0.431 0.332,-0.441 0.305,-0.448C0.277,-0.455 0.255,-0.463 0.24,-0.47C0.224,-0.477 0.213,-0.485 0.208,-0.494C0.203,-0.503 0.2,-0.514 0.2,-0.528C0.2,-0.543 0.203,-0.556 0.21,-0.566C0.217,-0.576 0.225,-0.584 0.236,-0.591C0.246,-0.598 0.257,-0.602 0.27,-0.605C0.283,-0.608 0.295,-0.609 0.308,-0.609C0.327,-0.609 0.345,-0.607 0.362,-0.604C0.378,-0.601 0.392,-0.595 0.405,-0.587C0.418,-0.579 0.428,-0.568 0.436,-0.554C0.443,-0.54 0.448,-0.522 0.449,-0.501L0.601,-0.501C0.601,-0.542 0.593,-0.578 0.578,-0.607C0.562,-0.636 0.541,-0.659 0.514,-0.678C0.487,-0.697 0.457,-0.71 0.423,-0.719C0.388,-0.727 0.352,-0.731 0.315,-0.731C0.283,-0.731 0.251,-0.727 0.219,-0.718C0.187,-0.709 0.158,-0.696 0.133,-0.678C0.108,-0.66 0.087,-0.638 0.072,-0.611C0.056,-0.584 0.048,-0.552 0.048,-0.515C0.048,-0.482 0.054,-0.455 0.067,-0.432C0.079,-0.409 0.095,-0.389 0.115,-0.374C0.135,-0.359 0.158,-0.346 0.183,-0.337C0.208,-0.327 0.234,-0.319 0.261,-0.312C0.287,-0.305 0.313,-0.298 0.338,-0.292C0.363,-0.286 0.386,-0.279 0.406,-0.271C0.426,-0.263 0.442,-0.253 0.455,-0.241C0.467,-0.229 0.473,-0.213 0.473,-0.194C0.473,-0.176 0.468,-0.161 0.459,-0.15C0.45,-0.138 0.438,-0.129 0.424,-0.122C0.41,-0.115 0.395,-0.111 0.379,-0.109C0.363,-0.106 0.348,-0.105 0.334,-0.105C0.313,-0.105 0.293,-0.108 0.274,-0.113C0.255,-0.117 0.238,-0.125 0.224,-0.136C0.209,-0.146 0.198,-0.159 0.189,-0.176C0.18,-0.193 0.176,-0.213 0.176,-0.237Z" style="fill-rule:nonzero;"/>
                </g>
                <g transform="matrix(50,0,0,50,999.184,863.911)">
                    <path d="M0.195,-0.354C0.195,-0.385 0.199,-0.416 0.206,-0.445C0.213,-0.474 0.224,-0.501 0.239,-0.524C0.254,-0.547 0.274,-0.565 0.299,-0.579C0.324,-0.592 0.354,-0.599 0.389,-0.599C0.424,-0.599 0.454,-0.592 0.479,-0.579C0.504,-0.565 0.524,-0.547 0.539,-0.524C0.554,-0.501 0.566,-0.474 0.573,-0.445C0.58,-0.416 0.583,-0.385 0.583,-0.354C0.583,-0.324 0.58,-0.295 0.573,-0.267C0.566,-0.238 0.554,-0.213 0.539,-0.19C0.524,-0.167 0.504,-0.149 0.479,-0.136C0.454,-0.122 0.424,-0.115 0.389,-0.115C0.354,-0.115 0.324,-0.122 0.299,-0.136C0.274,-0.149 0.254,-0.167 0.239,-0.19C0.224,-0.213 0.213,-0.238 0.206,-0.267C0.199,-0.295 0.195,-0.324 0.195,-0.354ZM0.038,-0.354C0.038,-0.302 0.046,-0.254 0.062,-0.209C0.078,-0.164 0.101,-0.124 0.131,-0.091C0.161,-0.058 0.198,-0.032 0.242,-0.013C0.285,0.007 0.334,0.016 0.389,0.016C0.444,0.016 0.494,0.007 0.537,-0.013C0.58,-0.032 0.617,-0.058 0.647,-0.091C0.677,-0.124 0.7,-0.164 0.716,-0.209C0.732,-0.254 0.74,-0.302 0.74,-0.354C0.74,-0.407 0.732,-0.457 0.716,-0.503C0.7,-0.548 0.677,-0.588 0.647,-0.622C0.617,-0.656 0.58,-0.683 0.537,-0.702C0.494,-0.721 0.444,-0.731 0.389,-0.731C0.334,-0.731 0.285,-0.721 0.242,-0.702C0.198,-0.683 0.161,-0.656 0.131,-0.622C0.101,-0.588 0.078,-0.548 0.062,-0.503C0.046,-0.457 0.038,-0.407 0.038,-0.354Z" style="fill-rule:nonzero;"/>
                </g>
                <g transform="matrix(50,0,0,50,1038.08,863.911)">
                    <path d="M0.069,-0.714L0.069,-0L0.574,-0L0.574,-0.132L0.226,-0.132L0.226,-0.714L0.069,-0.714Z" style="fill-rule:nonzero;"/>
                </g>
                <g transform="matrix(50,0,0,50,1067.73,863.911)">
                    <path d="M0.312,-0.522L0.312,-0.279L0.128,-0.279L0.309,-0.522L0.312,-0.522ZM0.312,-0.162L0.312,-0L0.447,-0L0.447,-0.162L0.54,-0.162L0.54,-0.279L0.447,-0.279L0.447,-0.7L0.32,-0.7L0.016,-0.292L0.016,-0.162L0.312,-0.162Z" style="fill-rule:nonzero;"/>
                </g>
                <g transform="matrix(50,0,0,50,1095.53,863.911)">
                    <path d="M0.175,-0.596L0.464,-0.307L0.175,-0.018L0.175,-0.596Z" style="fill-rule:nonzero;"/>
                </g>
            </g>
            <g transform="matrix(6.12323e-17,-1,1,6.12323e-17,2356.3,1842.52)">
                <g transform="matrix(50,0,0,50,966.734,863.911)">
                    <path d="M0.176,-0.237L0.024,-0.237C0.023,-0.193 0.031,-0.155 0.048,-0.123C0.065,-0.091 0.087,-0.065 0.116,-0.044C0.144,-0.023 0.177,-0.008 0.214,0.002C0.251,0.011 0.289,0.016 0.328,0.016C0.377,0.016 0.42,0.01 0.457,-0.001C0.494,-0.012 0.525,-0.028 0.55,-0.049C0.575,-0.069 0.593,-0.093 0.606,-0.121C0.619,-0.149 0.625,-0.179 0.625,-0.212C0.625,-0.252 0.616,-0.285 0.6,-0.311C0.583,-0.336 0.562,-0.357 0.539,-0.372C0.516,-0.387 0.492,-0.399 0.469,-0.406C0.445,-0.413 0.426,-0.417 0.413,-0.42C0.368,-0.431 0.332,-0.441 0.305,-0.448C0.277,-0.455 0.255,-0.463 0.24,-0.47C0.224,-0.477 0.213,-0.485 0.208,-0.494C0.203,-0.503 0.2,-0.514 0.2,-0.528C0.2,-0.543 0.203,-0.556 0.21,-0.566C0.217,-0.576 0.225,-0.584 0.236,-0.591C0.246,-0.598 0.257,-0.602 0.27,-0.605C0.283,-0.608 0.295,-0.609 0.308,-0.609C0.327,-0.609 0.345,-0.607 0.362,-0.604C0.378,-0.601 0.392,-0.595 0.405,-0.587C0.418,-0.579 0.428,-0.568 0.436,-0.554C0.443,-0.54 0.448,-0.522 0.449,-0.501L0.601,-0.501C0.601,-0.542 0.593,-0.578 0.578,-0.607C0.562,-0.636 0.541,-0.659 0.514,-0.678C0.487,-0.697 0.457,-0.71 0.423,-0.719C0.388,-0.727 0.352,-0.731 0.315,-0.731C0.283,-0.731 0.251,-0.727 0.219,-0.718C0.187,-0.709 0.158,-0.696 0.133,-0.678C0.108,-0.66 0.087,-0.638 0.072,-0.611C0.056,-0.584 0.048,-0.552 0.048,-0.515C0.048,-0.482 0.054,-0.455 0.067,-0.432C0.079,-0.409 0.095,-0.389 0.115,-0.374C0.135,-0.359 0.158,-0.346 0.183,-0.337C0.208,-0.327 0.234,-0.319 0.261,-0.312C0.287,-0.305 0.313,-0.298 0.338,-0.292C0.363,-0.286 0.386,-0.279 0.406,-0.271C0.426,-0.263 0.442,-0.253 0.455,-0.241C0.467,-0.229 0.473,-0.213 0.473,-0.194C0.473,-0.176 0.468,-0.161 0.459,-0.15C0.45,-0.138 0.438,-0.129 0.424,-0.122C0.41,-0.115 0.395,-0.111 0.379,-0.109C0.363,-0.106 0.348,-0.105 0.334,-0.105C0.313,-0.105 0.293,-0.108 0.274,-0.113C0.255,-0.117 0.238,-0.125 0.224,-0.136C0.209,-0.146 0.198,-0.159 0.189,-0.176C0.18,-0.193 0.176,-0.213 0.176,-0.237Z" style="fill-rule:nonzero;"/>
                </g>
                <g transform="matrix(50,0,0,50,999.184,863.911)">
                    <path d="M0.195,-0.354C0.195,-0.385 0.199,-0.416 0.206,-0.445C0.213,-0.474 0.224,-0.501 0.239,-0.524C0.254,-0.547 0.274,-0.565 0.299,-0.579C0.324,-0.592 0.354,-0.599 0.389,-0.599C0.424,-0.599 0.454,-0.592 0.479,-0.579C0.504,-0.565 0.524,-0.547 0.539,-0.524C0.554,-0.501 0.566,-0.474 0.573,-0.445C0.58,-0.416 0.583,-0.385 0.583,-0.354C0.583,-0.324 0.58,-0.295 0.573,-0.267C0.566,-0.238 0.554,-0.213 0.539,-0.19C0.524,-0.167 0.504,-0.149 0.479,-0.136C0.454,-0.122 0.424,-0.115 0.389,-0.115C0.354,-0.115 0.324,-0.122 0.299,-0.136C0.274,-0.149 0.254,-0.167 0.239,-0.19C0.224,-0.213 0.213,-0.238 0.206,-0.267C0.199,-0.295 0.195,-0.324 0.195,-0.354ZM0.038,-0.354C0.038,-0.302 0.046,-0.254 0.062,-0.209C0.078,-0.164 0.101,-0.124 0.131,-0.091C0.161,-0.058 0.198,-0.032 0.242,-0.013C0.285,0.007 0.334,0.016 0.389,0.016C0.444,0.016 0.494,0.007 0.537,-0.013C0.58,-0.032 0.617,-0.058 0.647,-0.091C0.677,-0.124 0.7,-0.164 0.716,-0.209C0.732,-0.254 0.74,-0.302 0.74,-0.354C0.74,-0.407 0.732,-0.457 0.716,-0.503C0.7,-0.548 0.677,-0.588 0.647,-0.622C0.617,-0.656 0.58,-0.683 0.537,-0.702C0.494,-0.721 0.444,-0.731 0.389,-0.731C0.334,-0.731 0.285,-0.721 0.242,-0.702C0.198,-0.683 0.161,-0.656 0.131,-0.622C0.101,-0.588 0.078,-0.548 0.062,-0.503C0.046,-0.457 0.038,-0.407 0.038,-0.354Z" style="fill-rule:nonzero;"/>
                </g>
                <g transform="matrix(50,0,0,50,1038.08,863.911)">
                    <path d="M0.069,-0.714L0.069,-0L0.574,-0L0.574,-0.132L0.226,-0.132L0.226,-0.714L0.069,-0.714Z" style="fill-rule:nonzero;"/>
                </g>
                <g transform="matrix(50,0,0,50,1067.73,863.911)">
                    <path d="M0.312,-0.522L0.312,-0.279L0.128,-0.279L0.309,-0.522L0.312,-0.522ZM0.312,-0.162L0.312,-0L0.447,-0L0.447,-0.162L0.54,-0.162L0.54,-0.279L0.447,-0.279L0.447,-0.7L0.32,-0.7L0.016,-0.292L0.016,-0.162L0.312,-0.162Z" style="fill-rule:nonzero;"/>
                </g>
                <g transform="matrix(50,0,0,50,1095.53,863.911)">
                    <path d="M0.175,-0.596L0.464,-0.307L0.175,-0.018L0.175,-0.596Z" style="fill-rule:nonzero;"/>
                </g>
            </g>
            <g transform="matrix(6.12323e-17,-1,1,6.12323e-17,2496.06,1842.52)">
                <g transform="matrix(50,0,0,50,1045.15,861.061)">
                    <path d="M0.054,-0.517L0.054,-0L0.196,-0L0.196,-0.271C0.196,-0.324 0.205,-0.362 0.222,-0.385C0.239,-0.407 0.267,-0.419 0.306,-0.419C0.34,-0.419 0.364,-0.409 0.377,-0.388C0.39,-0.367 0.397,-0.335 0.397,-0.292L0.397,-0L0.539,-0L0.539,-0.318C0.539,-0.35 0.536,-0.379 0.531,-0.406C0.525,-0.432 0.515,-0.454 0.501,-0.473C0.487,-0.491 0.468,-0.505 0.444,-0.516C0.419,-0.526 0.388,-0.531 0.35,-0.531C0.32,-0.531 0.291,-0.524 0.262,-0.511C0.233,-0.497 0.21,-0.475 0.192,-0.445L0.189,-0.445L0.189,-0.517L0.054,-0.517Z" style="fill-rule:nonzero;"/>
                </g>
                <g transform="matrix(50,0,0,50,1074.8,861.061)">
                    <path d="M0.268,-0.731L-0.01,0.016L0.103,0.016L0.382,-0.731L0.268,-0.731Z" style="fill-rule:nonzero;"/>
                </g>
                <g transform="matrix(50,0,0,50,1093.35,861.061)">
                    <path d="M0.048,-0.358C0.05,-0.391 0.058,-0.419 0.073,-0.441C0.088,-0.463 0.106,-0.481 0.129,-0.494C0.152,-0.507 0.177,-0.517 0.206,-0.523C0.234,-0.528 0.262,-0.531 0.291,-0.531C0.317,-0.531 0.343,-0.529 0.37,-0.526C0.397,-0.522 0.421,-0.515 0.443,-0.504C0.465,-0.493 0.483,-0.478 0.497,-0.46C0.511,-0.44 0.518,-0.415 0.518,-0.384L0.518,-0.115C0.518,-0.092 0.519,-0.069 0.522,-0.048C0.525,-0.027 0.529,-0.011 0.536,-0L0.392,-0C0.389,-0.008 0.387,-0.016 0.386,-0.025C0.384,-0.033 0.383,-0.041 0.382,-0.05C0.359,-0.027 0.333,-0.01 0.302,-0.001C0.271,0.008 0.24,0.013 0.208,0.013C0.183,0.013 0.16,0.01 0.139,0.004C0.118,-0.002 0.099,-0.011 0.083,-0.024C0.067,-0.037 0.055,-0.053 0.046,-0.072C0.037,-0.091 0.032,-0.114 0.032,-0.141C0.032,-0.17 0.037,-0.195 0.048,-0.214C0.058,-0.233 0.071,-0.248 0.088,-0.259C0.104,-0.27 0.123,-0.279 0.144,-0.285C0.165,-0.29 0.186,-0.295 0.207,-0.298C0.228,-0.301 0.249,-0.304 0.27,-0.306C0.291,-0.308 0.309,-0.311 0.325,-0.315C0.341,-0.319 0.354,-0.325 0.363,-0.333C0.372,-0.34 0.377,-0.351 0.376,-0.366C0.376,-0.381 0.374,-0.394 0.369,-0.403C0.364,-0.412 0.357,-0.419 0.349,-0.424C0.34,-0.428 0.331,-0.432 0.32,-0.434C0.309,-0.435 0.297,-0.436 0.284,-0.436C0.256,-0.436 0.234,-0.43 0.218,-0.418C0.202,-0.406 0.193,-0.386 0.19,-0.358L0.048,-0.358ZM0.376,-0.253C0.37,-0.248 0.363,-0.243 0.354,-0.241C0.345,-0.238 0.335,-0.235 0.325,-0.233C0.314,-0.231 0.303,-0.229 0.292,-0.228C0.281,-0.227 0.269,-0.225 0.258,-0.223C0.247,-0.221 0.237,-0.218 0.227,-0.215C0.216,-0.212 0.207,-0.207 0.2,-0.202C0.192,-0.196 0.186,-0.189 0.181,-0.18C0.176,-0.171 0.174,-0.16 0.174,-0.147C0.174,-0.134 0.176,-0.124 0.181,-0.115C0.186,-0.106 0.192,-0.099 0.2,-0.095C0.208,-0.09 0.217,-0.086 0.228,-0.084C0.239,-0.082 0.25,-0.081 0.261,-0.081C0.289,-0.081 0.311,-0.086 0.326,-0.095C0.341,-0.104 0.353,-0.116 0.36,-0.129C0.367,-0.141 0.372,-0.155 0.374,-0.168C0.375,-0.181 0.376,-0.192 0.376,-0.2L0.376,-0.253Z" style="fill-rule:nonzero;"/>
                </g>
            </g>
            <g transform="matrix(6.12323e-17,-1,1,6.12323e-17,2634.84,1842.52)">
                <g transform="matrix(50,0,0,50,1045.15,861.061)">
                    <path d="M0.054,-0.517L0.054,-0L0.196,-0L0.196,-0.271C0.196,-0.324 0.205,-0.362 0.222,-0.385C0.239,-0.407 0.267,-0.419 0.306,-0.419C0.34,-0.419 0.364,-0.409 0.377,-0.388C0.39,-0.367 0.397,-0.335 0.397,-0.292L0.397,-0L0.539,-0L0.539,-0.318C0.539,-0.35 0.536,-0.379 0.531,-0.406C0.525,-0.432 0.515,-0.454 0.501,-0.473C0.487,-0.491 0.468,-0.505 0.444,-0.516C0.419,-0.526 0.388,-0.531 0.35,-0.531C0.32,-0.531 0.291,-0.524 0.262,-0.511C0.233,-0.497 0.21,-0.475 0.192,-0.445L0.189,-0.445L0.189,-0.517L0.054,-0.517Z" style="fill-rule:nonzero;"/>
                </g>
                <g transform="matrix(50,0,0,50,1074.8,861.061)">
                    <path d="M0.268,-0.731L-0.01,0.016L0.103,0.016L0.382,-0.731L0.268,-0.731Z" style="fill-rule:nonzero;"/>
                </g>
                <g transform="matrix(50,0,0,50,1093.35,861.061)">
                    <path d="M0.048,-0.358C0.05,-0.391 0.058,-0.419 0.073,-0.441C0.088,-0.463 0.106,-0.481 0.129,-0.494C0.152,-0.507 0.177,-0.517 0.206,-0.523C0.234,-0.528 0.262,-0.531 0.291,-0.531C0.317,-0.531 0.343,-0.529 0.37,-0.526C0.397,-0.522 0.421,-0.515 0.443,-0.504C0.465,-0.493 0.483,-0.478 0.497,-0.46C0.511,-0.44 0.518,-0.415 0.518,-0.384L0.518,-0.115C0.518,-0.092 0.519,-0.069 0.522,-0.048C0.525,-0.027 0.529,-0.011 0.536,-0L0.392,-0C0.389,-0.008 0.387,-0.016 0.386,-0.025C0.384,-0.033 0.383,-0.041 0.382,-0.05C0.359,-0.027 0.333,-0.01 0.302,-0.001C0.271,0.008 0.24,0.013 0.208,0.013C0.183,0.013 0.16,0.01 0.139,0.004C0.118,-0.002 0.099,-0.011 0.083,-0.024C0.067,-0.037 0.055,-0.053 0.046,-0.072C0.037,-0.091 0.032,-0.114 0.032,-0.141C0.032,-0.17 0.037,-0.195 0.048,-0.214C0.058,-0.233 0.071,-0.248 0.088,-0.259C0.104,-0.27 0.123,-0.279 0.144,-0.285C0.165,-0.29 0.186,-0.295 0.207,-0.298C0.228,-0.301 0.249,-0.304 0.27,-0.306C0.291,-0.308 0.309,-0.311 0.325,-0.315C0.341,-0.319 0.354,-0.325 0.363,-0.333C0.372,-0.34 0.377,-0.351 0.376,-0.366C0.376,-0.381 0.374,-0.394 0.369,-0.403C0.364,-0.412 0.357,-0.419 0.349,-0.424C0.34,-0.428 0.331,-0.432 0.32,-0.434C0.309,-0.435 0.297,-0.436 0.284,-0.436C0.256,-0.436 0.234,-0.43 0.218,-0.418C0.202,-0.406 0.193,-0.386 0.19,-0.358L0.048,-0.358ZM0.376,-0.253C0.37,-0.248 0.363,-0.243 0.354,-0.241C0.345,-0.238 0.335,-0.235 0.325,-0.233C0.314,-0.231 0.303,-0.229 0.292,-0.228C0.281,-0.227 0.269,-0.225 0.258,-0.223C0.247,-0.221 0.237,-0.218 0.227,-0.215C0.216,-0.212 0.207,-0.207 0.2,-0.202C0.192,-0.196 0.186,-0.189 0.181,-0.18C0.176,-0.171 0.174,-0.16 0.174,-0.147C0.174,-0.134 0.176,-0.124 0.181,-0.115C0.186,-0.106 0.192,-0.099 0.2,-0.095C0.208,-0.09 0.217,-0.086 0.228,-0.084C0.239,-0.082 0.25,-0.081 0.261,-0.081C0.289,-0.081 0.311,-0.086 0.326,-0.095C0.341,-0.104 0.353,-0.116 0.36,-0.129C0.367,-0.141 0.372,-0.155 0.374,-0.168C0.375,-0.181 0.376,-0.192 0.376,-0.2L0.376,-0.253Z" style="fill-rule:nonzero;"/>
                </g>
            </g>
        </g>
    </g>
    <g transform="matrix(1,0,0,1,-1919.29,1724.41)">
        <g>
            <g transform="matrix(2.02222,0,0,1.57895,-2656.17,-205.139)">
                <rect x="2598.43" y="354.331" width="531.496" height="224.409" style="fill:none;stroke:rgb(0,255,0);stroke-width:0.46px;"/>
            </g>
            <g transform="matrix(1,0,0,1,-118.11,0)">
                <rect x="2716.53" y="354.331" width="118.11" height="354.331" style="fill:none;stroke:rgb(0,255,0);stroke-width:0.83px;"/>
            </g>
            <g transform="matrix(1,0,0,1,838.583,0)">
                <rect x="2716.53" y="354.331" width="118.11" height="354.331" style="fill:none;stroke:rgb(0,255,0);stroke-width:0.83px;"/>
            </g>
            <g transform="matrix(1.03333,0,0,1.03333,2016.73,-353.346)">
                <circle cx="620.079" cy="856.299" r="17.717" style="fill:none;stroke:rgb(255,0,0);stroke-width:0.81px;"/>
            </g>
            <g transform="matrix(1.03333,0,0,1.03333,2973.43,-353.346)">
                <circle cx="620.079" cy="856.299" r="17.717" style="fill:none;stroke:rgb(255,0,0);stroke-width:0.81px;"/>
            </g>
        </g>
        <g>
            <g transform="matrix(1,0,0,1,-4.54747e-13,-11.811)">
                <path d="M2716.53,732.283L2716.53,791.339" style="fill:none;stroke:black;stroke-width:8.33px;"/>
                <g transform="matrix(1,0,0,1,139.764,0)">
                    <path d="M2716.53,732.283L2716.53,791.339" style="fill:none;stroke:black;stroke-width:8.33px;"/>
                </g>
                <g transform="matrix(1,0,0,1,279.528,0)">
                    <path d="M2716.53,732.283L2716.53,791.339" style="fill:none;stroke:black;stroke-width:8.33px;"/>
                </g>
                <g transform="matrix(1,0,0,1,419.291,0)">
                    <path d="M2716.53,732.283L2716.53,791.339" style="fill:none;stroke:black;stroke-width:8.33px;"/>
                </g>
                <g transform="matrix(1,0,0,1,559.055,0)">
                    <path d="M2716.53,732.283L2716.53,791.339" style="fill:none;stroke:black;stroke-width:8.33px;"/>
                </g>
                <g transform="matrix(1,0,0,1,698.819,0)">
                    <path d="M2716.53,732.283L2716.53,791.339" style="fill:none;stroke:black;stroke-width:8.33px;"/>
                </g>
                <g transform="matrix(1,0,0,1,838.583,0)">
                    <path d="M2716.53,732.283L2716.53,791.339" style="fill:none;stroke:black;stroke-width:8.33px;"/>
                </g>
            </g>
            <g transform="matrix(6.12323e-17,-1,1,6.12323e-17,1937.01,1842.52)">
                <g transform="matrix(40,0,0,50,964.054,863.911)">
                    <path d="M0.176,-0.237L0.024,-0.237C0.023,-0.193 0.031,-0.155 0.048,-0.123C0.065,-0.091 0.087,-0.065 0.116,-0.044C0.144,-0.023 0.177,-0.008 0.214,0.002C0.251,0.011 0.289,0.016 0.328,0.016C0.377,0.016 0.42,0.01 0.457,-0.001C0.494,-0.012 0.525,-0.028 0.55,-0.049C0.575,-0.069 0.593,-0.093 0.606,-0.121C0.619,-0.149 0.625,-0.179 0.625,-0.212C0.625,-0.252 0.616,-0.285 0.6,-0.311C0.583,-0.336 0.562,-0.357 0.539,-0.372C0.516,-0.387 0.492,-0.399 0.469,-0.406C0.445,-0.413 0.426,-0.417 0.413,-0.42C0.368,-0.431 0.332,-0.441 0.305,-0.448C0.277,-0.455 0.255,-0.463 0.24,-0.47C0.224,-0.477 0.213,-0.485 0.208,-0.494C0.203,-0.503 0.2,-0.514 0.2,-0.528C0.2,-0.543 0.203,-0.556 0.21,-0.566C0.217,-0.576 0.225,-0.584 0.236,-0.591C0.246,-0.598 0.257,-0.602 0.27,-0.605C0.283,-0.608 0.295,-0.609 0.308,-0.609C0.327,-0.609 0.345,-0.607 0.362,-0.604C0.378,-0.601 0.392,-0.595 0.405,-0.587C0.418,-0.579 0.428,-0.568 0.436,-0.554C0.443,-0.54 0.448,-0.522 0.449,-0.501L0.601,-0.501C0.601,-0.542 0.593,-0.578 0.578,-0.607C0.562,-0.636 0.541,-0.659 0.514,-0.678C0.487,-0.697 0.457,-0.71 0.423,-0.719C0.388,-0.727 0.352,-0.731 0.315,-0.731C0.283,-0.731 0.251,-0.727 0.219,-0.718C0.187,-0.709 0.158,-0.696 0.133,-0.678C0.108,-0.66 0.087,-0.638 0.072,-0.611C0.056,-0.584 0.048,-0.552 0.048,-0.515C0.048,-0.482 0.054,-0.455 0.067,-0.432C0.079,-0.409 0.095,-0.389 0.115,-0.374C0.135,-0.359 0.158,-0.346 0.183,-0.337C0.208,-0.327 0.234,-0.319 0.261,-0.312C0.287,-0.305 0.313,-0.298 0.338,-0.292C0.363,-0.286 0.386,-0.279 0.406,-0.271C0.426,-0.263 0.442,-0.253 0.455,-0.241C0.467,-0.229 0.473,-0.213 0.473,-0.194C0.473,-0.176 0.468,-0.161 0.459,-0.15C0.45,-0.138 0.438,-0.129 0.424,-0.122C0.41,-0.115 0.395,-0.111 0.379,-0.109C0.363,-0.106 0.348,-0.105 0.334,-0.105C0.313,-0.105 0.293,-0.108 0.274,-0.113C0.255,-0.117 0.238,-0.125 0.224,-0.136C0.209,-0.146 0.198,-0.159 0.189,-0.176C0.18,-0.193 0.176,-0.213 0.176,-0.237Z" style="fill-rule:nonzero;"/>
                </g>
                <g transform="matrix(40,0,0,50,990.014,863.911)">
                    <path d="M0.069,-0.714L0.069,-0L0.611,-0L0.611,-0.132L0.226,-0.132L0.226,-0.307L0.572,-0.307L0.572,-0.429L0.226,-0.429L0.226,-0.582L0.603,-0.582L0.603,-0.714L0.069,-0.714Z" style="fill-rule:nonzero;"/>
                </g>
                <g transform="matrix(40,0,0,50,1015.93,863.911)">
                    <path d="M0.069,-0.714L0.069,-0L0.216,-0L0.216,-0.478L0.218,-0.478L0.515,-0L0.672,-0L0.672,-0.714L0.525,-0.714L0.525,-0.235L0.523,-0.235L0.225,-0.714L0.069,-0.714Z" style="fill-rule:nonzero;"/>
                </g>
                <g transform="matrix(40,0,0,50,1045.57,863.911)">
                    <path d="M0.176,-0.237L0.024,-0.237C0.023,-0.193 0.031,-0.155 0.048,-0.123C0.065,-0.091 0.087,-0.065 0.116,-0.044C0.144,-0.023 0.177,-0.008 0.214,0.002C0.251,0.011 0.289,0.016 0.328,0.016C0.377,0.016 0.42,0.01 0.457,-0.001C0.494,-0.012 0.525,-0.028 0.55,-0.049C0.575,-0.069 0.593,-0.093 0.606,-0.121C0.619,-0.149 0.625,-0.179 0.625,-0.212C0.625,-0.252 0.616,-0.285 0.6,-0.311C0.583,-0.336 0.562,-0.357 0.539,-0.372C0.516,-0.387 0.492,-0.399 0.469,-0.406C0.445,-0.413 0.426,-0.417 0.413,-0.42C0.368,-0.431 0.332,-0.441 0.305,-0.448C0.277,-0.455 0.255,-0.463 0.24,-0.47C0.224,-0.477 0.213,-0.485 0.208,-0.494C0.203,-0.503 0.2,-0.514 0.2,-0.528C0.2,-0.543 0.203,-0.556 0.21,-0.566C0.217,-0.576 0.225,-0.584 0.236,-0.591C0.246,-0.598 0.257,-0.602 0.27,-0.605C0.283,-0.608 0.295,-0.609 0.308,-0.609C0.327,-0.609 0.345,-0.607 0.362,-0.604C0.378,-0.601 0.392,-0.595 0.405,-0.587C0.418,-0.579 0.428,-0.568 0.436,-0.554C0.443,-0.54 0.448,-0.522 0.449,-0.501L0.601,-0.501C0.601,-0.542 0.593,-0.578 0.578,-0.607C0.562,-0.636 0.541,-0.659 0.514,-0.678C0.487,-0.697 0.457,-0.71 0.423,-0.719C0.388,-0.727 0.352,-0.731 0.315,-0.731C0.283,-0.731 0.251,-0.727 0.219,-0.718C0.187,-0.709 0.158,-0.696 0.133,-0.678C0.108,-0.66 0.087,-0.638 0.072,-0.611C0.056,-0.584 0.048,-0.552 0.048,-0.515C0.048,-0.482 0.054,-0.455 0.067,-0.432C0.079,-0.409 0.095,-0.389 0.115,-0.374C0.135,-0.359 0.158,-0.346 0.183,-0.337C0.208,-0.327 0.234,-0.319 0.261,-0.312C0.287,-0.305 0.313,-0.298 0.338,-0.292C0.363,-0.286 0.386,-0.279 0.406,-0.271C0.426,-0.263 0.442,-0.253 0.455,-0.241C0.467,-0.229 0.473,-0.213 0.473,-0.194C0.473,-0.176 0.468,-0.161 0.459,-0.15C0.45,-0.138 0.438,-0.129 0.424,-0.122C0.41,-0.115 0.395,-0.111 0.379,-0.109C0.363,-0.106 0.348,-0.105 0.334,-0.105C0.313,-0.105 0.293,-0.108 0.274,-0.113C0.255,-0.117 0.238,-0.125 0.224,-0.136C0.209,-0.146 0.198,-0.159 0.189,-0.176C0.18,-0.193 0.176,-0.213 0.176,-0.237Z" style="fill-rule:nonzero;"/>
                </g>
                <g transform="matrix(40,0,0,50,1071.53,863.911)">
                    <path d="M0.354,-0.306L0.354,-0.505L0.247,-0.505L0.247,-0.306L0.048,-0.306L0.048,-0.199L0.247,-0.199L0.247,-0L0.354,-0L0.354,-0.199L0.553,-0.199L0.553,-0.306L0.354,-0.306Z" style="fill-rule:nonzero;"/>
                </g>
                <g transform="matrix(50,0,0,50,1095.53,863.911)">
                    <path d="M0.175,-0.596L0.464,-0.307L0.175,-0.018L0.175,-0.596Z" style="fill-rule:nonzero;"/>
                </g>
            </g>
            <g transform="matrix(6.12323e-17,-1,1,6.12323e-17,2076.77,1842.52)">
                <g transform="matrix(40,0,0,50,948.054,868.361)">
                    <path d="M0.176,-0.237L0.024,-0.237C0.023,-0.193 0.031,-0.155 0.048,-0.123C0.065,-0.091 0.087,-0.065 0.116,-0.044C0.144,-0.023 0.177,-0.008 0.214,0.002C0.251,0.011 0.289,0.016 0.328,0.016C0.377,0.016 0.42,0.01 0.457,-0.001C0.494,-0.012 0.525,-0.028 0.55,-0.049C0.575,-0.069 0.593,-0.093 0.606,-0.121C0.619,-0.149 0.625,-0.179 0.625,-0.212C0.625,-0.252 0.616,-0.285 0.6,-0.311C0.583,-0.336 0.562,-0.357 0.539,-0.372C0.516,-0.387 0.492,-0.399 0.469,-0.406C0.445,-0.413 0.426,-0.417 0.413,-0.42C0.368,-0.431 0.332,-0.441 0.305,-0.448C0.277,-0.455 0.255,-0.463 0.24,-0.47C0.224,-0.477 0.213,-0.485 0.208,-0.494C0.203,-0.503 0.2,-0.514 0.2,-0.528C0.2,-0.543 0.203,-0.556 0.21,-0.566C0.217,-0.576 0.225,-0.584 0.236,-0.591C0.246,-0.598 0.257,-0.602 0.27,-0.605C0.283,-0.608 0.295,-0.609 0.308,-0.609C0.327,-0.609 0.345,-0.607 0.362,-0.604C0.378,-0.601 0.392,-0.595 0.405,-0.587C0.418,-0.579 0.428,-0.568 0.436,-0.554C0.443,-0.54 0.448,-0.522 0.449,-0.501L0.601,-0.501C0.601,-0.542 0.593,-0.578 0.578,-0.607C0.562,-0.636 0.541,-0.659 0.514,-0.678C0.487,-0.697 0.457,-0.71 0.423,-0.719C0.388,-0.727 0.352,-0.731 0.315,-0.731C0.283,-0.731 0.251,-0.727 0.219,-0.718C0.187,-0.709 0.158,-0.696 0.133,-0.678C0.108,-0.66 0.087,-0.638 0.072,-0.611C0.056,-0.584 0.048,-0.552 0.048,-0.515C0.048,-0.482 0.054,-0.455 0.067,-0.432C0.079,-0.409 0.095,-0.389 0.115,-0.374C0.135,-0.359 0.158,-0.346 0.183,-0.337C0.208,-0.327 0.234,-0.319 0.261,-0.312C0.287,-0.305 0.313,-0.298 0.338,-0.292C0.363,-0.286 0.386,-0.279 0.406,-0.271C0.426,-0.263 0.442,-0.253 0.455,-0.241C0.467,-0.229 0.473,-0.213 0.473,-0.194C0.473,-0.176 0.468,-0.161 0.459,-0.15C0.45,-0.138 0.438,-0.129 0.424,-0.122C0.41,-0.115 0.395,-0.111 0.379,-0.109C0.363,-0.106 0.348,-0.105 0.334,-0.105C0.313,-0.105 0.293,-0.108 0.274,-0.113C0.255,-0.117 0.238,-0.125 0.224,-0.136C0.209,-0.146 0.198,-0.159 0.189,-0.176C0.18,-0.193 0.176,-0.213 0.176,-0.237Z" style="fill-rule:nonzero;"/>
                </g>
                <g transform="matrix(40,0,0,50,974.014,868.361)">
                    <path d="M0.069,-0.714L0.069,-0L0.611,-0L0.611,-0.132L0.226,-0.132L0.226,-0.307L0.572,-0.307L0.572,-0.429L0.226,-0.429L0.226,-0.582L0.603,-0.582L0.603,-0.714L0.069,-0.714Z" style="fill-rule:nonzero;"/>
                </g>
                <g transform="matrix(40,0,0,50,999.934,868.361)">
                    <path d="M0.069,-0.714L0.069,-0L0.216,-0L0.216,-0.478L0.218,-0.478L0.515,-0L0.672,-0L0.672,-0.714L0.525,-0.714L0.525,-0.235L0.523,-0.235L0.225,-0.714L0.069,-0.714Z" style="fill-rule:nonzero;"/>
                </g>
                <g transform="matrix(40,0,0,50,1029.57,868.361)">
                    <path d="M0.176,-0.237L0.024,-0.237C0.023,-0.193 0.031,-0.155 0.048,-0.123C0.065,-0.091 0.087,-0.065 0.116,-0.044C0.144,-0.023 0.177,-0.008 0.214,0.002C0.251,0.011 0.289,0.016 0.328,0.016C0.377,0.016 0.42,0.01 0.457,-0.001C0.494,-0.012 0.525,-0.028 0.55,-0.049C0.575,-0.069 0.593,-0.093 0.606,-0.121C0.619,-0.149 0.625,-0.179 0.625,-0.212C0.625,-0.252 0.616,-0.285 0.6,-0.311C0.583,-0.336 0.562,-0.357 0.539,-0.372C0.516,-0.387 0.492,-0.399 0.469,-0.406C0.445,-0.413 0.426,-0.417 0.413,-0.42C0.368,-0.431 0.332,-0.441 0.305,-0.448C0.277,-0.455 0.255,-0.463 0.24,-0.47C0.224,-0.477 0.213,-0.485 0.208,-0.494C0.203,-0.503 0.2,-0.514 0.2,-0.528C0.2,-0.543 0.203,-0.556 0.21,-0.566C0.217,-0.576 0.225,-0.584 0.236,-0.591C0.246,-0.598 0.257,-0.602 0.27,-0.605C0.283,-0.608 0.295,-0.609 0.308,-0.609C0.327,-0.609 0.345,-0.607 0.362,-0.604C0.378,-0.601 0.392,-0.595 0.405,-0.587C0.418,-0.579 0.428,-0.568 0.436,-0.554C0.443,-0.54 0.448,-0.522 0.449,-0.501L0.601,-0.501C0.601,-0.542 0.593,-0.578 0.578,-0.607C0.562,-0.636 0.541,-0.659 0.514,-0.678C0.487,-0.697 0.457,-0.71 0.423,-0.719C0.388,-0.727 0.352,-0.731 0.315,-0.731C0.283,-0.731 0.251,-0.727 0.219,-0.718C0.187,-0.709 0.158,-0.696 0.133,-0.678C0.108,-0.66 0.087,-0.638 0.072,-0.611C0.056,-0.584 0.048,-0.552 0.048,-0.515C0.048,-0.482 0.054,-0.455 0.067,-0.432C0.079,-0.409 0.095,-0.389 0.115,-0.374C0.135,-0.359 0.158,-0.346 0.183,-0.337C0.208,-0.327 0.234,-0.319 0.261,-0.312C0.287,-0.305 0.313,-0.298 0.338,-0.292C0.363,-0.286 0.386,-0.279 0.406,-0.271C0.426,-0.263 0.442,-0.253 0.455,-0.241C0.467,-0.229 0.473,-0.213 0.473,-0.194C0.473,-0.176 0.468,-0.161 0.459,-0.15C0.45,-0.138 0.438,-0.129 0.424,-0.122C0.41,-0.115 0.395,-0.111 0.379,-0.109C0.363,-0.106 0.348,-0.105 0.334,-0.105C0.313,-0.105 0.293,-0.108 0.274,-0.113C0.255,-0.117 0.238,-0.125 0.224,-0.136C0.209,-0.146 0.198,-0.159 0.189,-0.176C0.18,-0.193 0.176,-0.213 0.176,-0.237Z" style="fill-rule:nonzero;"/>
                </g>
                <g transform="matrix(40,0,0,50,1055.53,868.361)">
                    <path d="M0.782,-0.382L0.782,-0.339L0.968,-0.339L0.968,-0.382L0.782,-0.382ZM0.532,-0.382L0.532,-0.339L0.717,-0.339L0.717,-0.382L0.532,-0.382ZM0.282,-0.382L0.282,-0.339L0.467,-0.339L0.467,-0.382L0.282,-0.382ZM0.031,-0.382L0.031,-0.339L0.217,-0.339L0.217,-0.382L0.031,-0.382Z" style="fill-rule:nonzero;"/>
                </g>
                <g transform="matrix(50,0,0,50,1095.53,868.361)">
                    <path d="M0.175,-0.596L0.464,-0.307L0.175,-0.018L0.175,-0.596Z" style="fill-rule:nonzero;"/>
                </g>
            </g>
            <g transform="matrix(6.12323e-17,-1,1,6.12323e-17,2216.54,1842.52)">
                <g transform="matrix(40,0,0,50,948.054,863.911)">
                    <path d="M0.176,-0.237L0.024,-0.237C0.023,-0.193 0.031,-0.155 0.048,-0.123C0.065,-0.091 0.087,-0.065 0.116,-0.044C0.144,-0.023 0.177,-0.008 0.214,0.002C0.251,0.011 0.289,0.016 0.328,0.016C0.377,0.016 0.42,0.01 0.457,-0.001C0.494,-0.012 0.525,-0.028 0.55,-0.049C0.575,-0.069 0.593,-0.093 0.606,-0.121C0.619,-0.149 0.625,-0.179 0.625,-0.212C0.625,-0.252 0.616,-0.285 0.6,-0.311C0.583,-0.336 0.562,-0.357 0.539,-0.372C0.516,-0.387 0.492,-0.399 0.469,-0.406C0.445,-0.413 0.426,-0.417 0.413,-0.42C0.368,-0.431 0.332,-0.441 0.305,-0.448C0.277,-0.455 0.255,-0.463 0.24,-0.47C0.224,-0.477 0.213,-0.485 0.208,-0.494C0.203,-0.503 0.2,-0.514 0.2,-0.528C0.2,-0.543 0.203,-0.556 0.21,-0.566C0.217,-0.576 0.225,-0.584 0.236,-0.591C0.246,-0.598 0.257,-0.602 0.27,-0.605C0.283,-0.608 0.295,-0.609 0.308,-0.609C0.327,-0.609 0.345,-0.607 0.362,-0.604C0.378,-0.601 0.392,-0.595 0.405,-0.587C0.418,-0.579 0.428,-0.568 0.436,-0.554C0.443,-0.54 0.448,-0.522 0.449,-0.501L0.601,-0.501C0.601,-0.542 0.593,-0.578 0.578,-0.607C0.562,-0.636 0.541,-0.659 0.514,-0.678C0.487,-0.697 0.457,-0.71 0.423,-0.719C0.388,-0.727 0.352,-0.731 0.315,-0.731C0.283,-0.731 0.251,-0.727 0.219,-0.718C0.187,-0.709 0.158,-0.696 0.133,-0.678C0.108,-0.66 0.087,-0.638 0.072,-0.611C0.056,-0.584 0.048,-0.552 0.048,-0.515C0.048,-0.482 0.054,-0.455 0.067,-0.432C0.079,-0.409 0.095,-0.389 0.115,-0.374C0.135,-0.359 0.158,-0.346 0.183,-0.337C0.208,-0.327 0.234,-0.319 0.261,-0.312C0.287,-0.305 0.313,-0.298 0.338,-0.292C0.363,-0.286 0.386,-0.279 0.406,-0.271C0.426,-0.263 0.442,-0.253 0.455,-0.241C0.467,-0.229 0.473,-0.213 0.473,-0.194C0.473,-0.176 0.468,-0.161 0.459,-0.15C0.45,-0.138 0.438,-0.129 0.424,-0.122C0.41,-0.115 0.395,-0.111 0.379,-0.109C0.363,-0.106 0.348,-0.105 0.334,-0.105C0.313,-0.105 0.293,-0.108 0.274,-0.113C0.255,-0.117 0.238,-0.125 0.224,-0.136C0.209,-0.146 0.198,-0.159 0.189,-0.176C0.18,-0.193 0.176,-0.213 0.176,-0.237Z" style="fill-rule:nonzero;"/>
                </g>
                <g transform="matrix(40,0,0,50,974.014,863.911)">
                    <path d="M0.069,-0.714L0.069,-0L0.611,-0L0.611,-0.132L0.226,-0.132L0.226,-0.307L0.572,-0.307L0.572,-0.429L0.226,-0.429L0.226,-0.582L0.603,-0.582L0.603,-0.714L0.069,-0.714Z" style="fill-rule:nonzero;"/>
                </g>
                <g transform="matrix(40,0,0,50,999.934,863.911)">
                    <path d="M0.069,-0.714L0.069,-0L0.216,-0L0.216,-0.478L0.218,-0.478L0.515,-0L0.672,-0L0.672,-0.714L0.525,-0.714L0.525,-0.235L0.523,-0.235L0.225,-0.714L0.069,-0.714Z" style="fill-rule:nonzero;"/>
                </g>
                <g transform="matrix(40,0,0,50,1029.57,863.911)">
                    <path d="M0.176,-0.237L0.024,-0.237C0.023,-0.193 0.031,-0.155 0.048,-0.123C0.065,-0.091 0.087,-0.065 0.116,-0.044C0.144,-0.023 0.177,-0.008 0.214,0.002C0.251,0.011 0.289,0.016 0.328,0.016C0.377,0.016 0.42,0.01 0.457,-0.001C0.494,-0.012 0.525,-0.028 0.55,-0.049C0.575,-0.069 0.593,-0.093 0.606,-0.121C0.619,-0.149 0.625,-0.179 0.625,-0.212C0.625,-0.252 0.616,-0.285 0.6,-0.311C0.583,-0.336 0.562,-0.357 0.539,-0.372C0.516,-0.387 0.492,-0.399 0.469,-0.406C0.445,-0.413 0.426,-0.417 0.413,-0.42C0.368,-0.431 0.332,-0.441 0.305,-0.448C0.277,-0.455 0.255,-0.463 0.24,-0.47C0.224,-0.477 0.213,-0.485 0.208,-0.494C0.203,-0.503 0.2,-0.514 0.2,-0.528C0.2,-0.543 0.203,-0.556 0.21,-0.566C0.217,-0.576 0.225,-0.584 0.236,-0.591C0.246,-0.598 0.257,-0.602 0.27,-0.605C0.283,-0.608 0.295,-0.609 0.308,-0.609C0.327,-0.609 0.345,-0.607 0.362,-0.604C0.378,-0.601 0.392,-0.595 0.405,-0.587C0.418,-0.579 0.428,-0.568 0.436,-0.554C0.443,-0.54 0.448,-0.522 0.449,-0.501L0.601,-0.501C0.601,-0.542 0.593,-0.578 0.578,-0.607C0.562,-0.636 0.541,-0.659 0.514,-0.678C0.487,-0.697 0.457,-0.71 0.423,-0.719C0.388,-0.727 0.352,-0.731 0.315,-0.731C0.283,-0.731 0.251,-0.727 0.219,-0.718C0.187,-0.709 0.158,-0.696 0.133,-0.678C0.108,-0.66 0.087,-0.638 0.072,-0.611C0.056,-0.584 0.048,-0.552 0.048,-0.515C0.048,-0.482 0.054,-0.455 0.067,-0.432C0.079,-0.409 0.095,-0.389 0.115,-0.374C0.135,-0.359 0.158,-0.346 0.183,-0.337C0.208,-0.327 0.234,-0.319 0.261,-0.312C0.287,-0.305 0.313,-0.298 0.338,-0.292C0.363,-0.286 0.386,-0.279 0.406,-0.271C0.426,-0.263 0.442,-0.253 0.455,-0.241C0.467,-0.229 0.473,-0.213 0.473,-0.194C0.473,-0.176 0.468,-0.161 0.459,-0.15C0.45,-0.138 0.438,-0.129 0.424,-0.122C0.41,-0.115 0.395,-0.111 0.379,-0.109C0.363,-0.106 0.348,-0.105 0.334,-0.105C0.313,-0.105 0.293,-0.108 0.274,-0.113C0.255,-0.117 0.238,-0.125 0.224,-0.136C0.209,-0.146 0.198,-0.159 0.189,-0.176C0.18,-0.193 0.176,-0.213 0.176,-0.237Z" style="fill-rule:nonzero;"/>
                </g>
                <g transform="matrix(40,0,0,50,1055.53,863.911)">
                    <rect x="0.13" y="-0.334" width="0.74" height="0.122" style="fill-rule:nonzero;"/>
                </g>
                <g transform="matrix(50,0,0,50,1095.53,863.911)">
                    <path d="M0.175,-0.596L0.464,-0.307L0.175,-0.018L0.175,-0.596Z" style="fill-rule:nonzero;"/>
                </g>
            </g>
            <g transform="matrix(6.12323e-17,-1,1,6.12323e-17,2356.3,1842.52)">
                <g transform="matrix(50,0,0,50,966.434,863.911)">
                    <path d="M0.069,-0.714L0.069,-0L0.574,-0L0.574,-0.132L0.226,-0.132L0.226,-0.714L0.069,-0.714Z" style="fill-rule:nonzero;"/>
                </g>
                <g transform="matrix(50,0,0,50,996.084,863.911)">
                    <path d="M0.069,-0.714L0.069,-0L0.611,-0L0.611,-0.132L0.226,-0.132L0.226,-0.307L0.572,-0.307L0.572,-0.429L0.226,-0.429L0.226,-0.582L0.603,-0.582L0.603,-0.714L0.069,-0.714Z" style="fill-rule:nonzero;"/>
                </g>
                <g transform="matrix(50,0,0,50,1028.48,863.911)">
                    <path d="M0.226,-0.132L0.226,-0.582L0.338,-0.582C0.377,-0.582 0.409,-0.576 0.436,-0.566C0.462,-0.555 0.483,-0.539 0.499,-0.518C0.515,-0.497 0.527,-0.472 0.534,-0.444C0.541,-0.415 0.544,-0.382 0.544,-0.346C0.544,-0.307 0.539,-0.273 0.529,-0.246C0.519,-0.219 0.506,-0.197 0.489,-0.18C0.472,-0.163 0.453,-0.15 0.432,-0.143C0.411,-0.136 0.389,-0.132 0.366,-0.132L0.226,-0.132ZM0.069,-0.714L0.069,-0L0.377,-0C0.432,-0 0.479,-0.009 0.52,-0.028C0.56,-0.046 0.594,-0.071 0.621,-0.103C0.648,-0.135 0.668,-0.173 0.681,-0.217C0.694,-0.261 0.701,-0.309 0.701,-0.361C0.701,-0.42 0.693,-0.472 0.677,-0.516C0.66,-0.56 0.638,-0.597 0.609,-0.626C0.58,-0.655 0.545,-0.677 0.506,-0.692C0.466,-0.707 0.423,-0.714 0.377,-0.714L0.069,-0.714Z" style="fill-rule:nonzero;"/>
                </g>
                <g transform="matrix(50,0,0,50,1065.53,863.911)">
                    <path d="M0.354,-0.306L0.354,-0.505L0.247,-0.505L0.247,-0.306L0.048,-0.306L0.048,-0.199L0.247,-0.199L0.247,-0L0.354,-0L0.354,-0.199L0.553,-0.199L0.553,-0.306L0.354,-0.306Z" style="fill-rule:nonzero;"/>
                </g>
                <g transform="matrix(50,0,0,50,1095.53,863.911)">
                    <path d="M0.175,-0.596L0.464,-0.307L0.175,-0.018L0.175,-0.596Z" style="fill-rule:nonzero;"/>
                </g>
            </g>
            <g transform="matrix(6.12323e-17,-1,1,6.12323e-17,2496.06,1842.52)">
                <g transform="matrix(50,0,0,50,946.434,868.361)">
                    <path d="M0.069,-0.714L0.069,-0L0.574,-0L0.574,-0.132L0.226,-0.132L0.226,-0.714L0.069,-0.714Z" style="fill-rule:nonzero;"/>
                </g>
                <g transform="matrix(50,0,0,50,976.084,868.361)">
                    <path d="M0.069,-0.714L0.069,-0L0.611,-0L0.611,-0.132L0.226,-0.132L0.226,-0.307L0.572,-0.307L0.572,-0.429L0.226,-0.429L0.226,-0.582L0.603,-0.582L0.603,-0.714L0.069,-0.714Z" style="fill-rule:nonzero;"/>
                </g>
                <g transform="matrix(50,0,0,50,1008.48,868.361)">
                    <path d="M0.226,-0.132L0.226,-0.582L0.338,-0.582C0.377,-0.582 0.409,-0.576 0.436,-0.566C0.462,-0.555 0.483,-0.539 0.499,-0.518C0.515,-0.497 0.527,-0.472 0.534,-0.444C0.541,-0.415 0.544,-0.382 0.544,-0.346C0.544,-0.307 0.539,-0.273 0.529,-0.246C0.519,-0.219 0.506,-0.197 0.489,-0.18C0.472,-0.163 0.453,-0.15 0.432,-0.143C0.411,-0.136 0.389,-0.132 0.366,-0.132L0.226,-0.132ZM0.069,-0.714L0.069,-0L0.377,-0C0.432,-0 0.479,-0.009 0.52,-0.028C0.56,-0.046 0.594,-0.071 0.621,-0.103C0.648,-0.135 0.668,-0.173 0.681,-0.217C0.694,-0.261 0.701,-0.309 0.701,-0.361C0.701,-0.42 0.693,-0.472 0.677,-0.516C0.66,-0.56 0.638,-0.597 0.609,-0.626C0.58,-0.655 0.545,-0.677 0.506,-0.692C0.466,-0.707 0.423,-0.714 0.377,-0.714L0.069,-0.714Z" style="fill-rule:nonzero;"/>
                </g>
                <g transform="matrix(50,0,0,50,1045.53,868.361)">
                    <path d="M0.782,-0.382L0.782,-0.339L0.968,-0.339L0.968,-0.382L0.782,-0.382ZM0.532,-0.382L0.532,-0.339L0.717,-0.339L0.717,-0.382L0.532,-0.382ZM0.282,-0.382L0.282,-0.339L0.467,-0.339L0.467,-0.382L0.282,-0.382ZM0.031,-0.382L0.031,-0.339L0.217,-0.339L0.217,-0.382L0.031,-0.382Z" style="fill-rule:nonzero;"/>
                </g>
                <g transform="matrix(50,0,0,50,1095.53,868.361)">
                    <path d="M0.175,-0.596L0.464,-0.307L0.175,-0.018L0.175,-0.596Z" style="fill-rule:nonzero;"/>
                </g>
            </g>
            <g transform="matrix(6.12323e-17,-1,1,6.12323e-17,2634.84,1842.52)">
                <g transform="matrix(50,0,0,50,946.434,863.911)">
                    <path d="M0.069,-0.714L0.069,-0L0.574,-0L0.574,-0.132L0.226,-0.132L0.226,-0.714L0.069,-0.714Z" style="fill-rule:nonzero;"/>
                </g>
                <g transform="matrix(50,0,0,50,976.084,863.911)">
                    <path d="M0.069,-0.714L0.069,-0L0.611,-0L0.611,-0.132L0.226,-0.132L0.226,-0.307L0.572,-0.307L0.572,-0.429L0.226,-0.429L0.226,-0.582L0.603,-0.582L0.603,-0.714L0.069,-0.714Z" style="fill-rule:nonzero;"/>
                </g>
                <g transform="matrix(50,0,0,50,1008.48,863.911)">
                    <path d="M0.226,-0.132L0.226,-0.582L0.338,-0.582C0.377,-0.582 0.409,-0.576 0.436,-0.566C0.462,-0.555 0.483,-0.539 0.499,-0.518C0.515,-0.497 0.527,-0.472 0.534,-0.444C0.541,-0.415 0.544,-0.382 0.544,-0.346C0.544,-0.307 0.539,-0.273 0.529,-0.246C0.519,-0.219 0.506,-0.197 0.489,-0.18C0.472,-0.163 0.453,-0.15 0.432,-0.143C0.411,-0.136 0.389,-0.132 0.366,-0.132L0.226,-0.132ZM0.069,-0.714L0.069,-0L0.377,-0C0.432,-0 0.479,-0.009 0.52,-0.028C0.56,-0.046 0.594,-0.071 0.621,-0.103C0.648,-0.135 0.668,-0.173 0.681,-0.217C0.694,-0.261 0.701,-0.309 0.701,-0.361C0.701,-0.42 0.693,-0.472 0.677,-0.516C0.66,-0.56 0.638,-0.597 0.609,-0.626C0.58,-0.655 0.545,-0.677 0.506,-0.692C0.466,-0.707 0.423,-0.714 0.377,-0.714L0.069,-0.714Z" style="fill-rule:nonzero;"/>
                </g>
                <g transform="matrix(50,0,0,50,1045.53,863.911)">
                    <rect x="0.13" y="-0.334" width="0.74" height="0.122" style="fill-rule:nonzero;"/>
                </g>
                <g transform="matrix(50,0,0,50,1095.53,863.911)">
                    <path d="M0.175,-0.596L0.464,-0.307L0.175,-0.018L0.175,-0.596Z" style="fill-rule:nonzero;"/>
                </g>
            </g>
        </g>
    </g>
    <g transform="matrix(0.933333,0,0,1.65891,-807.874,-352.133)">
        <path d="M2763.78,333.303C2763.78,305.796 2724.09,283.465 2675.2,283.465L1080.71,283.465C1031.82,283.465 992.126,305.796 992.126,333.303L992.126,1757.25C992.126,1784.76 1031.82,1807.09 1080.71,1807.09L2675.2,1807.09C2724.09,1807.09 2763.78,1784.76 2763.78,1757.25L2763.78,333.303Z" style="fill:none;stroke:rgb(0,0,255);stroke-width:0.62px;"/>
    </g>
    <g id="Anchor" transform="matrix(1,0,0,1,59.0551,-1101.38)">
        <path d="M262.796,1369.87C262.909,1352.04 277.419,1337.6 295.276,1337.6C313.202,1337.6 327.756,1352.15 327.756,1370.08L327.756,1427.06C343.761,1437.63 354.331,1455.78 354.331,1476.38C354.331,1508.97 327.869,1535.43 295.276,1535.43C262.682,1535.43 236.22,1508.97 236.22,1476.38C236.22,1455.78 246.79,1437.63 262.795,1427.06L262.795,1370.08L262.796,1369.87Z" style="fill:none;stroke:rgb(255,0,0);stroke-width:0.83px;"/>
    </g>
    <g id="Anchor1" serif:id="Anchor" transform="matrix(1,0,0,1,1240.16,-1101.38)">
        <path d="M262.796,1369.87C262.909,1352.04 277.419,1337.6 295.276,1337.6C313.202,1337.6 327.756,1352.15 327.756,1370.08L327.756,1427.06C343.761,1437.63 354.331,1455.78 354.331,1476.38C354.331,1508.97 327.869,1535.43 295.276,1535.43C262.682,1535.43 236.22,1508.97 236.22,1476.38C236.22,1455.78 246.79,1437.63 262.795,1427.06L262.795,1370.08L262.796,1369.87Z" style="fill:none;stroke:rgb(255,0,0);stroke-width:0.83px;"/>
    </g>
    <g transform="matrix(1,0,0,1,1033.46,-324.803)">
        <circle cx="620.079" cy="856.299" r="17.717" style="fill:none;stroke:rgb(255,0,0);stroke-width:0.83px;"/>
    </g>
    <g>
        <g transform="matrix(1,0,0,2.66667,1074.8,-1409.45)">
            <circle cx="620.079" cy="856.299" r="17.717" style="fill:none;stroke:rgb(255,0,0);stroke-width:0.41px;"/>
        </g>
        <g transform="matrix(1,0,0,2.66667,1074.8,-1255.91)">
            <circle cx="620.079" cy="856.299" r="17.717" style="fill:none;stroke:rgb(255,0,0);stroke-width:0.41px;"/>
        </g>
        <g transform="matrix(1,0,0,2.66667,1074.8,-1102.36)">
            <circle cx="620.079" cy="856.299" r="17.717" style="fill:none;stroke:rgb(255,0,0);stroke-width:0.41px;"/>
        </g>
        <g transform="matrix(1,0,0,2.66667,1074.8,-948.819)">
            <circle cx="620.079" cy="856.299" r="17.717" style="fill:none;stroke:rgb(255,0,0);stroke-width:0.41px;"/>
        </g>
        <g transform="matrix(1,0,0,2.66667,1074.8,-795.276)">
            <circle cx="620.079" cy="856.299" r="17.717" style="fill:none;stroke:rgb(255,0,0);stroke-width:0.41px;"/>
        </g>
        <g transform="matrix(1,0,0,2.66667,1074.8,-641.732)">
            <circle cx="620.079" cy="856.299" r="17.717" style="fill:none;stroke:rgb(255,0,0);stroke-width:0.41px;"/>
        </g>
        <g transform="matrix(1,0,0,2.66667,1074.8,-488.189)">
            <circle cx="620.079" cy="856.299" r="17.717" style="fill:none;stroke:rgb(255,0,0);stroke-width:0.41px;"/>
        </g>
        <g transform="matrix(1,0,0,2.66667,1074.8,-334.646)">
            <circle cx="620.079" cy="856.299" r="17.717" style="fill:none;stroke:rgb(255,0,0);stroke-width:0.41px;"/>
        </g>
    </g>
</svg>
