<?xml version="1.0" standalone="no"?>

<!DOCTYPE svg PUBLIC "-//W3C//DTD SVG 20010904//EN"

 "http://www.w3.org/TR/2001/REC-SVG-20010904/DTD/svg10.dtd">

<svg version="1.0" xmlns="http://www.w3.org/2000/svg"

 width="350.000000pt" height="350.000000pt" viewBox="0 0 350.000000 350.000000"

 preserveAspectRatio="xMidYMid meet">

<path fill="#000000" stroke="none" d="
M44 274

L44 242

L76 242

L107 242

L107 274

L107 305

L76 305

L44 305

L44 274

Z

M98 274

L98 251

L76 251

L53 251

L53 274

L53 296

L76 296

L98 296

L98 274

Z

M125 301

L125 296

L130 296

L134 296

L134 292

L134 287

L143 287

L152 287

L152 283

L152 278

L157 278

L161 278

L161 283

L161 287

L166 287

L170 287

L170 292

L170 296

L175 296

L179 296

L179 301

L179 305

L175 305

L170 305

L170 301

L170 296

L161 296

L152 296

L152 301

L152 305

L139 305

L125 305

L125 301

Z

M233 301

L233 296

L229 296

L224 296

L224 292

L224 287

L220 287

L215 287

L215 283

L215 278

L202 278

L188 278

L188 283

L188 287

L184 287

L179 287

L179 283

L179 278

L175 278

L170 278

L170 269

L170 260

L166 260

L161 260

L161 265

L161 269

L157 269

L152 269

L152 265

L152 260

L148 260

L143 260

L143 265

L143 269

L134 269

L125 269

L125 265

L125 260

L121 260

L116 260

L116 247

L116 233

L121 233

L125 233

L125 238

L125 242

L134 242

L143 242

L143 247

L143 251

L148 251

L152 251

L152 242

L152 233

L143 233

L134 233

L134 229

L134 224

L143 224

L152 224

L152 220

L152 215

L139 215

L125 215

L125 220

L125 224

L116 224

L107 224

L107 229

L107 233

L103 233

L98 233

L98 229

L98 224

L94 224

L89 224

L89 229

L89 233

L85 233

L80 233

L80 229

L80 224

L76 224

L71 224

L71 229

L71 233

L58 233

L44 233

L44 229

L44 224

L53 224

L62 224

L62 220

L62 215

L53 215

L44 215

L44 211

L44 206

L53 206

L62 206

L62 202

L62 197

L53 197

L44 197

L44 188

L44 179

L49 179

L53 179

L53 175

L53 170

L58 170

L62 170

L62 175

L62 179

L71 179

L80 179

L80 184

L80 188

L76 188

L71 188

L71 202

L71 215

L76 215

L80 215

L80 206

L80 197

L85 197

L89 197

L89 184

L89 170

L80 170

L71 170

L71 161

L71 152

L62 152

L53 152

L53 157

L53 161

L49 161

L44 161

L44 157

L44 152

L49 152

L53 152

L53 143

L53 134

L49 134

L44 134

L44 130

L44 125

L49 125

L53 125

L53 130

L53 134

L58 134

L62 134

L62 125

L62 116

L67 116

L71 116

L71 121

L71 125

L80 125

L89 125

L89 121

L89 116

L107 116

L125 116

L125 121

L125 125

L130 125

L134 125

L134 107

L134 89

L130 89

L125 89

L125 98

L125 107

L121 107

L116 107

L116 80

L116 53

L125 53

L134 53

L134 49

L134 44

L139 44

L143 44

L143 49

L143 53

L148 53

L152 53

L152 58

L152 62

L148 62

L143 62

L143 76

L143 89

L148 89

L152 89

L152 85

L152 80

L157 80

L161 80

L161 76

L161 71

L166 71

L170 71

L170 67

L170 62

L166 62

L161 62

L161 53

L161 44

L170 44

L179 44

L179 53

L179 62

L184 62

L188 62

L188 53

L188 44

L206 44

L224 44

L224 53

L224 62

L220 62

L215 62

L215 67

L215 71

L220 71

L224 71

L224 76

L224 80

L220 80

L215 80

L215 85

L215 89

L220 89

L224 89

L224 94

L224 98

L229 98

L233 98

L233 107

L233 116

L238 116

L242 116

L242 125

L242 134

L251 134

L260 134

L260 130

L260 125

L256 125

L251 125

L251 121

L251 116

L274 116

L296 116

L296 121

L296 125

L287 125

L278 125

L278 134

L278 143

L287 143

L296 143

L296 139

L296 134

L301 134

L305 134

L305 139

L305 143

L301 143

L296 143

L296 148

L296 152

L301 152

L305 152

L305 161

L305 170

L301 170

L296 170

L296 166

L296 161

L287 161

L278 161

L278 170

L278 179

L283 179

L287 179

L287 184

L287 188

L292 188

L296 188

L296 184

L296 179

L301 179

L305 179

L305 188

L305 197

L292 197

L278 197

L278 211

L278 224

L287 224

L296 224

L296 215

L296 206

L301 206

L305 206

L305 215

L305 224

L301 224

L296 224

L296 233

L296 242

L301 242

L305 242

L305 256

L305 269

L301 269

L296 269

L296 274

L296 278

L301 278

L305 278

L305 292

L305 305

L301 305

L296 305

L296 301

L296 296

L283 296

L269 296

L269 301

L269 305

L265 305

L260 305

L260 301

L260 296

L256 296

L251 296

L251 292

L251 287

L256 287

L260 287

L260 283

L260 278

L269 278

L278 278

L278 283

L278 287

L283 287

L287 287

L287 278

L287 269

L269 269

L251 269

L251 274

L251 278

L247 278

L242 278

L242 292

L242 305

L238 305

L233 305

L233 301

Z

M188 269

L188 260

L193 260

L197 260

L197 265

L197 269

L206 269

L215 269

L215 274

L215 278

L220 278

L224 278

L224 269

L224 260

L215 260

L206 260

L206 256

L206 251

L215 251

L224 251

L224 247

L224 242

L211 242

L197 242

L197 238

L197 233

L206 233

L215 233

L215 229

L215 224

L206 224

L197 224

L197 229

L197 233

L193 233

L188 233

L188 229

L188 224

L184 224

L179 224

L179 229

L179 233

L175 233

L170 233

L170 224

L170 215

L175 215

L179 215

L179 211

L179 206

L184 206

L188 206

L188 211

L188 215

L206 215

L224 215

L224 211

L224 206

L206 206

L188 206

L188 188

L188 170

L193 170

L197 170

L197 175

L197 179

L202 179

L206 179

L206 188

L206 197

L211 197

L215 197

L215 188

L215 179

L220 179

L224 179

L224 188

L224 197

L229 197

L233 197

L233 193

L233 188

L238 188

L242 188

L242 179

L242 170

L238 170

L233 170

L233 175

L233 179

L229 179

L224 179

L224 175

L224 170

L220 170

L215 170

L215 166

L215 161

L211 161

L206 161

L206 157

L206 152

L193 152

L179 152

L179 143

L179 134

L184 134

L188 134

L188 139

L188 143

L202 143

L215 143

L215 148

L215 152

L220 152

L224 152

L224 157

L224 161

L229 161

L233 161

L233 152

L233 143

L238 143

L242 143

L242 139

L242 134

L238 134

L233 134

L233 130

L233 125

L224 125

L215 125

L215 130

L215 134

L211 134

L206 134

L206 130

L206 125

L193 125

L179 125

L179 121

L179 116

L193 116

L206 116

L206 107

L206 98

L211 98

L215 98

L215 103

L215 107

L220 107

L224 107

L224 103

L224 98

L220 98

L215 98

L215 94

L215 89

L206 89

L197 89

L197 85

L197 80

L193 80

L188 80

L188 89

L188 98

L184 98

L179 98

L179 85

L179 71

L175 71

L170 71

L170 85

L170 98

L166 98

L161 98

L161 103

L161 107

L157 107

L152 107

L152 103

L152 98

L148 98

L143 98

L143 103

L143 107

L148 107

L152 107

L152 112

L152 116

L148 116

L143 116

L143 121

L143 125

L148 125

L152 125

L152 130

L152 134

L139 134

L125 134

L125 130

L125 125

L107 125

L89 125

L89 134

L89 143

L94 143

L98 143

L98 148

L98 152

L89 152

L80 152

L80 143

L80 134

L76 134

L71 134

L71 143

L71 152

L76 152

L80 152

L80 157

L80 161

L85 161

L89 161

L89 166

L89 170

L98 170

L107 170

L107 175

L107 179

L103 179

L98 179

L98 184

L98 188

L103 188

L107 188

L107 193

L107 197

L98 197

L89 197

L89 202

L89 206

L98 206

L107 206

L107 202

L107 197

L112 197

L116 197

L116 193

L116 188

L112 188

L107 188

L107 184

L107 179

L112 179

L116 179

L116 175

L116 170

L121 170

L125 170

L125 184

L125 197

L130 197

L134 197

L134 202

L134 206

L139 206

L143 206

L143 202

L143 197

L148 197

L152 197

L152 206

L152 215

L157 215

L161 215

L161 229

L161 242

L166 242

L170 242

L170 247

L170 251

L175 251

L179 251

L179 265

L179 278

L184 278

L188 278

L188 269

Z

M242 274

L242 269

L238 269

L233 269

L233 274

L233 278

L238 278

L242 278

L242 274

Z

M296 260

L296 251

L292 251

L287 251

L287 242

L287 233

L283 233

L278 233

L278 229

L278 224

L274 224

L269 224

L269 211

L269 197

L256 197

L242 197

L242 202

L242 206

L247 206

L251 206

L251 211

L251 215

L256 215

L260 215

L260 220

L260 224

L265 224

L269 224

L269 229

L269 233

L274 233

L278 233

L278 238

L278 242

L274 242

L269 242

L269 247

L269 251

L274 251

L278 251

L278 256

L278 260

L283 260

L287 260

L287 265

L287 269

L292 269

L296 269

L296 260

Z

M134 256

L134 251

L130 251

L125 251

L125 256

L125 260

L130 260

L134 260

L134 256

Z

M260 247

L260 233

L247 233

L233 233

L233 247

L233 260

L247 260

L260 260

L260 247

Z

M107 220

L107 215

L103 215

L98 215

L98 220

L98 224

L103 224

L107 224

L107 220

Z

M278 184

L278 179

L274 179

L269 179

L269 170

L269 161

L274 161

L278 161

L278 157

L278 152

L274 152

L269 152

L269 143

L269 134

L265 134

L260 134

L260 143

L260 152

L265 152

L269 152

L269 157

L269 161

L260 161

L251 161

L251 170

L251 179

L256 179

L260 179

L260 184

L260 188

L269 188

L278 188

L278 184

Z

M215 76

L215 71

L211 71

L206 71

L206 67

L206 62

L202 62

L197 62

L197 67

L197 71

L202 71

L206 71

L206 76

L206 80

L211 80

L215 80

L215 76

Z

M134 67

L134 62

L130 62

L125 62

L125 67

L125 71

L130 71

L134 71

L134 67

Z

M197 292

L197 287

L202 287

L206 287

L206 292

L206 296

L202 296

L197 296

L197 292

Z

M116 283

L116 278

L121 278

L125 278

L125 283

L125 287

L121 287

L116 287

L116 283

Z

M44 76

L44 44

L76 44

L107 44

L107 76

L107 107

L76 107

L44 107

L44 76

Z

M98 76

L98 53

L76 53

L53 53

L53 76

L53 98

L76 98

L98 98

L98 76

Z

M242 76

L242 44

L274 44

L305 44

L305 76

L305 107

L274 107

L242 107

L242 76

Z

M296 76

L296 53

L274 53

L251 53

L251 76

L251 98

L274 98

L296 98

L296 76

Z

M62 274

L62 260

L76 260

L89 260

L89 274

L89 287

L76 287

L62 287

L62 274

Z

M179 247

L179 242

L188 242

L197 242

L197 247

L197 251

L188 251

L179 251

L179 247

Z

M161 202

L161 197

L157 197

L152 197

L152 184

L152 170

L148 170

L143 170

L143 175

L143 179

L139 179

L134 179

L134 170

L134 161

L125 161

L116 161

L116 157

L116 152

L112 152

L107 152

L107 157

L107 161

L103 161

L98 161

L98 157

L98 152

L103 152

L107 152

L107 148

L107 143

L103 143

L98 143

L98 139

L98 134

L103 134

L107 134

L107 139

L107 143

L116 143

L125 143

L125 148

L125 152

L134 152

L143 152

L143 148

L143 143

L152 143

L161 143

L161 139

L161 134

L166 134

L170 134

L170 130

L170 125

L166 125

L161 125

L161 121

L161 116

L166 116

L170 116

L170 121

L170 125

L175 125

L179 125

L179 130

L179 134

L175 134

L170 134

L170 143

L170 152

L166 152

L161 152

L161 157

L161 161

L170 161

L179 161

L179 175

L179 188

L175 188

L170 188

L170 193

L170 197

L175 197

L179 197

L179 202

L179 206

L170 206

L161 206

L161 202

Z

M170 184

L170 179

L166 179

L161 179

L161 184

L161 188

L166 188

L170 188

L170 184

Z

M134 193

L134 188

L139 188

L143 188

L143 193

L143 197

L139 197

L134 197

L134 193

Z

M197 166

L197 161

L202 161

L206 161

L206 166

L206 170

L202 170

L197 170

L197 166

Z

M215 139

L215 134

L224 134

L233 134

L233 139

L233 143

L224 143

L215 143

L215 139

Z

M170 103

L170 98

L175 98

L179 98

L179 103

L179 107

L175 107

L170 107

L170 103

Z

M188 103

L188 98

L193 98

L197 98

L197 103

L197 107

L193 107

L188 107

L188 103

Z

M242 247

L242 242

L247 242

L251 242

L251 247

L251 251

L247 251

L242 251

L242 247

Z

M62 76

L62 62

L76 62

L89 62

L89 76

L89 89

L76 89

L62 89

L62 76

Z

M260 76

L260 62

L274 62

L287 62

L287 76

L287 89

L274 89

L260 89

L260 76

Z

"/>

<path fill="#ffffff" stroke="none" d="
"/>

</svg>

